<?xml version="1.0" encoding="UTF-8"?>
<svg width="16px" height="16px" viewBox="0 0 16 16" version="1.1" xmlns="http://www.w3.org/2000/svg" xmlns:xlink="http://www.w3.org/1999/xlink">
    <title>calculator-line</title>
    <defs>
        <filter id="filter-1">
            <feColorMatrix in="SourceGraphic" type="matrix" values="0 0 0 0 1.000000 0 0 0 0 1.000000 0 0 0 0 1.000000 0 0 0 1.000000 0"></feColorMatrix>
        </filter>
    </defs>
    <g id="页面-1" stroke="none" stroke-width="1" fill="none" fill-rule="evenodd">
        <g id="calculator-line" transform="translate(-1241.000000, -315.000000)" filter="url(#filter-1)">
            <g transform="translate(1241.000000, 315.000000)">
                <polygon id="路径" points="0 0 16 0 16 16 0 16"></polygon>
                <path d="M2.66666667,1.33333333 L13.3333333,1.33333333 C13.7015232,1.33333333 14,1.63181017 14,2 L14,14 C14,14.3681898 13.7015232,14.6666667 13.3333333,14.6666667 L2.66666667,14.6666667 C2.29847683,14.6666667 2,14.3681898 2,14 L2,2 C2,1.63181017 2.29847683,1.33333333 2.66666667,1.33333333 Z M3.33333333,2.66666667 L3.33333333,13.3333333 L12.6666667,13.3333333 L12.6666667,2.66666667 L3.33333333,2.66666667 Z M4.66666667,4 L11.3333333,4 L11.3333333,6.66666667 L4.66666667,6.66666667 L4.66666667,4 Z M4.66666667,8 L6,8 L6,9.33333333 L4.66666667,9.33333333 L4.66666667,8 Z M4.66666667,10.6666667 L6,10.6666667 L6,12 L4.66666667,12 L4.66666667,10.6666667 Z M7.33333333,8 L8.66666667,8 L8.66666667,9.33333333 L7.33333333,9.33333333 L7.33333333,8 Z M7.33333333,10.6666667 L8.66666667,10.6666667 L8.66666667,12 L7.33333333,12 L7.33333333,10.6666667 Z M10,8 L11.3333333,8 L11.3333333,12 L10,12 L10,8 Z" id="形状" fill="#000000" fill-rule="nonzero"></path>
            </g>
        </g>
    </g>
</svg>