<svg width="25" height="25" viewBox="0 0 25 25" fill="none" xmlns="http://www.w3.org/2000/svg">
<g clip-path="url(#clip0)">
<path d="M12.6732 10.3857C9.4449 7.15776 5.90503 5.46384 4.7663 6.60214C4.64135 6.73303 4.54941 6.89177 4.49807 7.0653L4.47975 7.04697L3.39225 11.5036L2.30934 15.9468L1.02567 21.2081L0.213074 24.5402L5.02412 22.7196L11.1434 20.4043L16.0253 18.5571L16.0194 18.5512C16.1829 18.4991 16.3324 18.4107 16.4568 18.2926C17.5955 17.1539 15.9016 13.614 12.6732 10.3857Z" fill="#DD1C4B"/>
<path d="M12.6733 10.3839C9.44508 7.15574 5.9051 5.46176 4.76653 6.60033C3.62795 7.73891 5.32193 11.2789 8.55014 14.5071C11.7783 17.7353 15.3183 19.4293 16.4569 18.2907C17.5955 17.1521 15.9015 13.6121 12.6733 10.3839Z" fill="#D1E3EE"/>
<path d="M15.5821 18.701C14.9992 18.7112 14.4209 18.5965 13.8861 18.3645L9.89597 19.8743L3.7746 22.1876L0.492132 23.4296L0.213074 24.5737L5.02412 22.7532L11.1434 20.4379L15.6237 18.7427L15.5821 18.701Z" fill="#B21D48"/>
<path d="M20.6218 15.4105C20.5719 15.4103 20.5225 15.4014 20.4756 15.3842C18.3612 14.5921 16.0756 14.37 13.8482 14.7403L12.3605 14.9881C12.1327 15.0206 11.9218 14.8623 11.8893 14.6346C11.8579 14.4146 12.0048 14.2087 12.223 14.1668L13.7112 13.9169C16.0829 13.5228 18.5164 13.7591 20.768 14.602C20.9845 14.6798 21.0969 14.9184 21.0191 15.1348C20.959 15.3021 20.7995 15.4128 20.6218 15.4105Z" fill="#FFBF41"/>
<path d="M13.1248 12.9113C12.8948 12.9099 12.7094 12.7223 12.7108 12.4923C12.7117 12.3335 12.8028 12.1891 12.9457 12.1199L21.6923 7.95487C21.9 7.85596 22.1486 7.94415 22.2475 8.15188C22.3464 8.35961 22.2582 8.60816 22.0505 8.70708L13.3039 12.8721C13.2479 12.8983 13.1867 12.9117 13.1248 12.9113Z" fill="#FFBF41"/>
<path d="M8.25412 12.0783C8.19919 12.0784 8.14479 12.0675 8.09418 12.0462C7.88187 11.9577 7.78154 11.7138 7.8701 11.5015V11.5015L8.4757 10.0483C9.40747 7.8218 9.62473 5.36088 9.09754 3.0056C9.0435 2.78199 9.181 2.55697 9.40456 2.50293C9.62817 2.44889 9.85318 2.58639 9.90722 2.80995C9.90842 2.81489 9.90951 2.81984 9.91056 2.82484C10.4753 5.34786 10.2425 7.98402 9.24415 10.369L8.63814 11.8222C8.57347 11.9772 8.42207 12.0782 8.25412 12.0783Z" fill="#FFBF41"/>
<path d="M22.7043 17.0766C23.1644 17.0766 23.5374 16.7037 23.5374 16.2436C23.5374 15.7836 23.1644 15.4106 22.7043 15.4106C22.2443 15.4106 21.8713 15.7836 21.8713 16.2436C21.8713 16.7037 22.2443 17.0766 22.7043 17.0766Z" fill="#D5557E"/>
<path d="M12.7082 5.41437C13.1682 5.41437 13.5412 5.04142 13.5412 4.58136C13.5412 4.1213 13.1682 3.74835 12.7082 3.74835C12.2481 3.74835 11.8752 4.1213 11.8752 4.58136C11.8752 5.04142 12.2481 5.41437 12.7082 5.41437Z" fill="#DD95C1"/>
<path d="M8.95966 1.66602C8.49958 1.66602 8.12665 1.29309 8.12665 0.833009C8.12665 0.372928 8.49958 0 8.95966 0C9.41974 0 9.79267 0.372928 9.79267 0.833009C9.79267 1.29309 9.41974 1.66602 8.95966 1.66602Z" fill="#7FCCCB"/>
<path d="M20.6218 3.33212C20.3918 3.33212 20.2053 3.14563 20.2053 2.91562V2.49912C20.2053 2.2691 20.3918 2.08261 20.6218 2.08261C20.8518 2.08261 21.0383 2.2691 21.0383 2.49912V2.91562C21.0383 3.14563 20.8518 3.33212 20.6218 3.33212Z" fill="#2276BB"/>
<path d="M20.6218 1.24951C20.3918 1.24951 20.2053 1.06302 20.2053 0.833009V0.416504C20.2053 0.18649 20.3918 0 20.6218 0C20.8518 0 21.0383 0.18649 21.0383 0.416504V0.833009C21.0383 1.06302 20.8518 1.24951 20.6218 1.24951Z" fill="#2276BB"/>
<path d="M21.8712 2.08255H21.4547C21.2247 2.08255 21.0382 1.89606 21.0382 1.66605C21.0382 1.43603 21.2247 1.24954 21.4547 1.24954H21.8712C22.1012 1.24954 22.2877 1.43603 22.2877 1.66605C22.2877 1.89606 22.1013 2.08255 21.8712 2.08255Z" fill="#2276BB"/>
<path d="M19.7888 2.08255H19.3723C19.1422 2.08255 18.9557 1.89606 18.9557 1.66605C18.9557 1.43603 19.1422 1.24954 19.3723 1.24954H19.7888C20.0188 1.24954 20.2053 1.43603 20.2053 1.66605C20.2053 1.89606 20.0188 2.08255 19.7888 2.08255Z" fill="#2276BB"/>
<path d="M3.51933 12.0787C3.47268 11.9004 3.43103 11.7205 3.3923 11.5372L2.30939 15.9805L2.39269 16.9963C2.57423 19.1621 3.5046 21.1969 5.02375 22.7512L11.1434 20.4379C11.1101 20.4275 11.0756 20.42 11.0422 20.4087C7.33144 19.0174 4.52665 15.9116 3.51933 12.0787Z" fill="white"/>
<path d="M11.1434 20.4375C11.1101 20.4271 11.0755 20.4196 11.0422 20.4083C10.6413 20.2565 10.2486 20.0837 9.86596 19.8906L4.35394 21.976C4.56292 22.2471 4.78664 22.5064 5.0241 22.7528L11.1434 20.4375Z" fill="#F6F6E7"/>
<path d="M17.7063 4.98956V7.08083H15.6151V4.98956H17.7063Z" fill="#C9DA53"/>
<path d="M10.2093 12.4953C9.97929 12.4953 9.79286 12.3087 9.79291 12.0787C9.79296 11.9607 9.84299 11.8483 9.93067 11.7693L14.0957 8.0208C14.2696 7.87028 14.5327 7.88928 14.6832 8.06323C14.8295 8.23233 14.8162 8.48681 14.653 8.63972L10.4879 12.3883C10.4115 12.4571 10.3122 12.4953 10.2093 12.4953Z" fill="#FFBF41"/>
<path d="M22.2878 10.8295C22.0578 10.8295 21.8713 10.643 21.8713 10.413V9.99646C21.8713 9.76645 22.0578 9.57996 22.2878 9.57996C22.5179 9.57996 22.7043 9.76645 22.7043 9.99646V10.413C22.7043 10.643 22.5179 10.8295 22.2878 10.8295Z" fill="#FFDB43"/>
<path d="M23.7606 10.2187C23.65 10.219 23.544 10.1751 23.4661 10.0967L23.1716 9.80219C23.0118 9.63673 23.0164 9.37303 23.1818 9.21325C23.3432 9.05737 23.5991 9.05737 23.7606 9.21325L24.055 9.50772C24.2177 9.67042 24.2176 9.93412 24.0549 10.0968C23.9769 10.1748 23.871 10.2187 23.7606 10.2187Z" fill="#FFDB43"/>
<path d="M24.3704 8.74698H23.9539C23.7239 8.74698 23.5374 8.56049 23.5374 8.33047C23.5374 8.10046 23.7239 7.91397 23.9539 7.91397H24.3704C24.6004 7.91397 24.7869 8.10046 24.7869 8.33047C24.7869 8.56049 24.6005 8.74698 24.3704 8.74698Z" fill="#FFDB43"/>
<path d="M23.4662 7.56871C23.2362 7.56866 23.0498 7.38217 23.0498 7.1521C23.0498 7.04167 23.0937 6.93578 23.1717 6.85773L23.4662 6.56326C23.6317 6.40343 23.8953 6.40801 24.0552 6.57347C24.211 6.73487 24.211 6.99076 24.0552 7.1522L23.7607 7.44667C23.6826 7.52477 23.5767 7.56871 23.4662 7.56871Z" fill="#FFDB43"/>
<path d="M22.2878 7.08084C22.0578 7.08084 21.8713 6.89435 21.8713 6.66434V6.24783C21.8713 6.01782 22.0578 5.83133 22.2878 5.83133C22.5179 5.83133 22.7043 6.01782 22.7043 6.24783V6.66434C22.7043 6.89435 22.5179 7.08084 22.2878 7.08084Z" fill="#FFDB43"/>
<path d="M21.1094 7.56888C20.999 7.56888 20.8931 7.52494 20.815 7.44685L20.5205 7.15238C20.3607 6.98692 20.3652 6.72322 20.5307 6.56344C20.6921 6.40756 20.948 6.40756 21.1094 6.56344L21.4039 6.85791C21.5666 7.02061 21.5665 7.28431 21.4038 7.44695C21.3258 7.52499 21.2199 7.56888 21.1094 7.56888Z" fill="#FFDB43"/>
<path d="M2.2956 0.416504L2.93909 1.72058L4.37812 1.92966L3.33686 2.94469L3.58259 4.37788L2.2956 3.70106L1.0086 4.37788L1.25433 2.94469L0.213074 1.92966L1.6521 1.72058L2.2956 0.416504Z" fill="#FFDB43"/>
<path d="M24.6552 22.5607C24.4571 21.8586 24.001 21.2574 23.3782 20.8776L23.2066 20.6202C22.2444 19.1813 20.7314 18.2029 19.0245 17.9158C18.7967 17.8833 18.5858 18.0416 18.5533 18.2693C18.5219 18.4893 18.6688 18.6953 18.887 18.7372C20.1182 18.9461 21.2402 19.5716 22.0654 20.509C21.3716 20.6338 20.7649 21.0504 20.3993 21.6531C19.9508 22.4565 20.2384 23.4714 21.0418 23.9199C21.8452 24.3685 22.8601 24.0809 23.3086 23.2775C23.48 22.9467 23.5725 22.5808 23.5789 22.2083C24.0221 22.852 24.0576 23.6925 23.6702 24.3712C23.5528 24.5691 23.618 24.8246 23.8159 24.9419C24.0137 25.0593 24.2692 24.9941 24.3866 24.7962C24.3903 24.7899 24.3939 24.7835 24.3974 24.7769C24.7758 24.1022 24.8686 23.3042 24.6552 22.5607ZM22.5822 22.871C22.3599 23.2738 21.8532 23.4201 21.4504 23.1978C21.0476 22.9755 20.9013 22.4687 21.1236 22.066C21.1249 22.0637 21.1261 22.0614 21.1274 22.0592C21.3732 21.6568 21.7878 21.387 22.2553 21.3253C22.3277 21.3233 22.3994 21.34 22.4635 21.3736C22.8151 21.5698 22.8338 22.4203 22.5822 22.871Z" fill="#2BB3CE"/>
</g>
<defs>
<clipPath id="clip0">
<rect width="25" height="25" fill="white"/>
</clipPath>
</defs>
</svg>
