<?xml version="1.0" encoding="UTF-8"?>
<svg width="40px" height="40px" viewBox="0 0 40 40" version="1.1" xmlns="http://www.w3.org/2000/svg" xmlns:xlink="http://www.w3.org/1999/xlink">
    <title>编组 13@2x</title>
    <defs>
        <linearGradient x1="50%" y1="0%" x2="50%" y2="100%" id="linearGradient-1">
            <stop stop-color="#07F2C3" offset="0%"></stop>
            <stop stop-color="#005139" offset="98.8008086%"></stop>
        </linearGradient>
        <linearGradient x1="50%" y1="0%" x2="50%" y2="98.8008086%" id="linearGradient-2">
            <stop stop-color="#F5AC37" offset="0%"></stop>
            <stop stop-color="#C16400" offset="100%"></stop>
        </linearGradient>
        <linearGradient x1="50%" y1="0.953343531%" x2="50%" y2="99.8051967%" id="linearGradient-3">
            <stop stop-color="#68B0FF" offset="0%"></stop>
            <stop stop-color="#113965" offset="100%"></stop>
        </linearGradient>
    </defs>
    <g id="页面-1" stroke="none" stroke-width="1" fill="none" fill-rule="evenodd">
        <g id="2.1-2invest" transform="translate(-390.000000, -450.000000)">
            <g id="编组-13" transform="translate(390.000000, 450.000000)">
                <g id="USDT备份-2" transform="translate(3.000000, 3.000000)" fill-rule="nonzero">
                    <rect id="矩形" fill="#000000" opacity="0" x="0" y="0" width="18.8888889" height="18.8888889"></rect>
                    <path d="M9.44444445,0 C14.6606111,0 18.8888889,4.22837223 18.8888889,9.44444445 C18.8888889,14.6606111 14.6606111,18.8888889 9.44444445,18.8888889 C4.22846668,18.8888889 0,14.6606111 0,9.44444445 C0,4.22837223 4.22846666,0 9.44444445,0 Z M13.6944444,4.72222222 L4.72222222,4.72222222 L4.72222222,6.82539262 L8.12529924,6.82539262 L8.12504618,8.53482358 C5.63184061,8.66890823 3.77777778,9.17455216 3.77777778,9.77790248 C3.77777778,10.3994445 5.74507656,10.9172861 8.35197494,11.0320265 L8.35197494,15.5833333 L10.496294,15.5833333 L10.496294,11.0338193 C13.1232679,10.9226646 15.1111111,10.4026527 15.1111111,9.77790248 C15.1111111,9.13705123 13.0195637,8.60642961 10.2919482,8.51419365 L10.2913674,6.82539262 L13.6944444,6.82539262 L13.6944444,4.72222222 Z M14.4911179,9.61268007 C14.4911179,10.160056 12.2315996,10.6037315 9.44449135,10.6037315 C6.65738311,10.6037315 4.39777098,10.160056 4.39777098,9.61268007 C4.39777098,9.15502773 5.97780186,8.76975882 8.12516326,8.6558413 L8.12529924,9.91666667 L10.2913674,9.91666667 L10.2916405,8.6355335 C12.6754339,8.71466929 14.4911179,9.12208516 14.4911179,9.61268007 Z" id="路径-2" fill="url(#linearGradient-1)"></path>
                </g>
                <g id="USDT备份-3" transform="translate(18.111111, 3.000000)" fill-rule="nonzero">
                    <rect id="矩形" fill="#000000" opacity="0" x="0" y="0" width="18.8888889" height="18.8888889"></rect>
                    <path d="M9.44444445,0 C14.6606111,0 18.8888889,4.22837223 18.8888889,9.44444445 C18.8888889,14.6606111 14.6606111,18.8888889 9.44444445,18.8888889 C4.22846668,18.8888889 0,14.6606111 0,9.44444445 C0,4.22837223 4.22846666,0 9.44444445,0 Z M10.072998,4.25 L5.66666667,4.25 L5.666,7.555 L3.77777778,7.55555556 L3.77777778,8.97222222 L5.666,8.972 L5.666,9.916 L3.77777778,9.91666667 L3.77777778,11.3333333 L5.666,11.333 L5.66666667,14.4876302 L9.88623047,14.4876302 C11.4956597,14.4876302 12.7476942,14.0207113 13.642334,13.0868734 C14.1053101,12.6036123 14.4484911,12.0193899 14.671877,11.3342061 L17,11.3333333 L17,9.91666667 L14.9515753,9.91743566 C14.9733875,9.67227467 14.9842936,9.4179222 14.9842936,9.15437826 L14.981,8.972 L17,8.97222222 L17,7.55555556 L14.8130974,7.55529687 C14.6168793,6.72547863 14.2519883,6.0445165 13.7184245,5.51241048 C12.9272563,4.72340393 11.8098122,4.3042442 10.3660924,4.25493129 L10.072998,4.25 Z M11.8957113,12.1046143 C11.3446316,12.7248671 10.5087891,13.0349935 9.38818359,13.0349935 L7.79720052,13.0349935 L7.797,11.333 L12.3732118,11.3348388 C12.2478215,11.6308602 12.0886547,11.887452 11.8957113,12.1046143 Z M12.7223307,9.27888997 C12.7223307,9.50174131 12.7137599,9.71458741 12.6966184,9.91742828 L7.797,9.916 L7.797,8.972 L12.7148056,8.97223895 C12.7198224,9.0726008 12.7223307,9.17481781 12.7223307,9.27888997 Z M9.08382161,5.65421549 C9.90467665,5.65421549 10.529541,5.73952908 10.9584147,5.91015625 C11.3872884,6.08078342 11.7539062,6.38975694 12.0582682,6.83707682 C12.2082864,7.05741605 12.3328867,7.29655395 12.432069,7.55449053 L7.797,7.555 L7.79720052,5.65421549 L9.08382161,5.65421549 Z" id="路径-2" fill="url(#linearGradient-2)"></path>
                </g>
                <g id="USDC" transform="translate(11.000000, 18.000000)" fill="url(#linearGradient-3)">
                    <path d="M9.45976882,0.135773439 C14.60112,0.135773439 18.7690078,4.30366125 18.7690078,9.4450124 L18.7690078,9.4450124 L18.7651766,9.71469372 C18.6224665,14.7313224 14.5109208,18.7542514 9.45976882,18.7542514 C4.31841767,18.7542514 0.150529863,14.5863635 0.150529863,9.4450124 L0.150529863,9.4450124 L0.154361079,9.17533107 C0.29707116,4.15870239 4.40861681,0.135773439 9.45976882,0.135773439 Z M11.2749819,2.89548618 L11.2749819,3.80752006 C11.2749819,3.87540607 11.3192554,3.93738896 11.3841898,3.96100148 C13.6893628,4.77268212 15.2743537,6.983405 15.2743537,9.44796256 C15.2743537,11.9095685 13.6893628,14.123243 11.3841898,14.9349236 C11.3192554,14.9585362 11.2749819,15.0175675 11.2749819,15.0884051 L11.2749819,15.9974874 C11.2749819,16.1066953 11.3812382,16.1863876 11.4845431,16.1568719 C14.4036418,15.2714021 16.4697379,12.532349 16.4697379,9.44501099 C16.4697379,6.35767302 14.4036418,3.61861984 11.4845431,2.73610162 C11.3812382,2.7036344 11.2749819,2.78627824 11.2749819,2.89548618 Z M7.04833945,2.86597052 C4.3151894,3.86950294 2.44979973,6.49639662 2.44979973,9.44501099 C2.44979973,12.3936254 4.3151894,15.020519 7.04833945,16.0240515 C7.15459583,16.0624218 7.26675533,15.9827295 7.26675533,15.8676185 L7.26675533,14.9349236 C7.26675533,14.8699892 7.22838497,14.8109579 7.16640209,14.7873453 C5.04717775,13.8753115 3.64518393,11.7649418 3.64518393,9.44501099 C3.64518393,7.12508017 5.05012931,5.01471052 7.16640209,4.10267665 C7.22543341,4.07611256 7.26675533,4.0200328 7.26675533,3.95509835 L7.26675533,3.02240352 C7.26675533,2.90729245 7.15459583,2.8246486 7.04833945,2.86597052 Z M9.95858346,5.03832305 L8.85764937,5.03832305 L8.85764937,6.18057907 C7.68882926,6.37833398 6.96569561,7.11622547 6.96569561,8.19059547 C6.96569561,10.2507885 10.3481902,10.1327259 10.3481902,11.4609305 C10.3481902,12.0246796 9.99400225,12.3286909 9.21478885,12.3286909 C8.58020217,12.3286909 7.98988898,12.0837109 7.37891484,11.6586854 L7.37891484,11.6586854 L6.65578118,12.6327022 C7.24609437,13.1049527 8.10204849,13.408964 8.85764937,13.4886563 L8.85764937,13.4886563 L8.85764937,14.5895904 L9.95858346,14.5895904 L9.95858346,13.4473344 C11.2366115,13.2318701 11.9154717,12.4349473 11.9154717,11.3605773 C11.9154717,9.15280596 8.53297712,9.34170618 8.53297712,8.11975789 C8.53297712,7.57666975 8.90192286,7.30217412 9.5571705,7.30217412 C10.1238712,7.30217412 10.5252841,7.50878374 10.9798253,7.88363261 L10.9798253,7.88363261 L11.8062637,7.05719415 C11.3251585,6.61445926 10.7584578,6.25731978 9.95858346,6.15991811 L9.95858346,6.15991811 L9.95858346,5.03832305 Z" id="形状结合"></path>
                </g>
            </g>
        </g>
    </g>
</svg>