<?xml version="1.0" encoding="UTF-8"?>
<svg width="70px" height="21px" viewBox="0 0 70 21" version="1.1" xmlns="http://www.w3.org/2000/svg" xmlns:xlink="http://www.w3.org/1999/xlink">
    <title>icon_Popular</title>
    <defs>
        <linearGradient x1="50%" y1="2.39018794%" x2="50%" y2="100%" id="linearGradient-1">
            <stop stop-color="#FF4646" offset="0%"></stop>
            <stop stop-color="#A80202" offset="100%"></stop>
        </linearGradient>
    </defs>
    <g id="页面-1" stroke="none" stroke-width="1" fill="none" fill-rule="evenodd">
        <g id="2.1-2invest" transform="translate(-637.000000, -243.000000)">
            <g id="icon_Popular" transform="translate(637.000000, 243.000000)">
                <path d="M10,0 L60,0 C65.5228475,3.89074334e-15 70,4.4771525 70,10 L70,11 C70,16.5228475 65.5228475,21 60,21 L0,21 L0,21 L0,10 C-6.76353751e-16,4.4771525 4.4771525,1.01453063e-15 10,0 Z" id="蒙版备份-3" fill-opacity="0.2" fill="#BD1313" fill-rule="nonzero"></path>
                <g id="火" transform="translate(6.000000, 4.000000)">
                    <path d="M10.4662651,3.62059894 C8.93132578,4.08276701 8.65132969,5.39337199 8.74999751,6.22577843 C7.65529903,4.86626139 7.69999831,3.30264747 7.69999831,1.05 C4.18818904,2.44831614 5.00457654,6.48047478 4.90000276,7.70421233 C4.01699107,6.94096005 3.85000356,5.11673919 3.85000356,5.11673919 C2.91723264,5.62276283 2.45,6.97637968 2.45,8.07445069 C2.45,10.7285422 4.48675021,12.8808345 7,12.8808345 C9.51324979,12.8808345 11.55,10.7285422 11.55,8.07445069 C11.55,6.49734898 10.4536153,5.76951633 10.4671088,3.62059894 L10.4662651,3.62059894 Z" id="路径" fill="url(#linearGradient-1)" fill-rule="nonzero"></path>
                    <rect id="矩形" x="0" y="0" width="14" height="14"></rect>
                </g>
                <path d="M14.523633,12.086398 C13.8489344,12.2817215 13.7258592,12.8356152 13.7692297,13.1874106 C13.2880435,12.6128454 13.3076916,11.9520239 13.3076916,11 C11.7640391,11.5909626 12.1228908,13.2950515 12.0769243,13.8122329 C11.6887873,13.4896638 11.6153862,12.7187034 11.6153862,12.7187034 C11.205377,12.9325614 11,13.504633 11,13.9687047 C11,15.0903887 11.8952748,16 13,16 C14.1047252,16 15,15.0903887 15,13.9687047 C15,13.3021829 14.5180726,12.994583 14.5240039,12.086398 L14.523633,12.086398 Z" id="路径" fill="#FCA64F" fill-rule="nonzero"></path>
                <path d="M22.768,15.8 C22.856,15.8 22.932,15.768 22.996,15.704 C23.06,15.64 23.092,15.564 23.092,15.476 L23.092,15.476 L23.092,12.824 C23.244,13.024 23.468,13.21 23.764,13.382 C24.06,13.554 24.456,13.64 24.952,13.64 C25.328,13.64 25.678,13.574 26.002,13.442 C26.326,13.31 26.608,13.122 26.848,12.878 C27.088,12.634 27.28,12.336 27.424,11.984 C27.568,11.632 27.652,11.236 27.676,10.796 C27.684,10.676 27.688,10.546 27.688,10.406 C27.688,10.266 27.684,10.136 27.676,10.016 C27.652,9.576 27.568,9.18 27.424,8.828 C27.28,8.476 27.088,8.176 26.848,7.928 C26.608,7.68 26.326,7.49 26.002,7.358 C25.678,7.226 25.328,7.16 24.952,7.16 C24.464,7.16 24.072,7.242 23.776,7.406 C23.48,7.57 23.252,7.76 23.092,7.976 L23.092,7.976 L23.092,7.604 C23.092,7.516 23.06,7.44 22.996,7.376 C22.932,7.312 22.856,7.28 22.768,7.28 L22.768,7.28 L22.324,7.28 C22.236,7.28 22.16,7.312 22.096,7.376 C22.032,7.44 22,7.516 22,7.604 L22,7.604 L22,15.476 C22,15.564 22.032,15.64 22.096,15.704 C22.16,15.768 22.236,15.8 22.324,15.8 L22.324,15.8 L22.768,15.8 Z M24.832,12.608 C24.328,12.608 23.918,12.454 23.602,12.146 C23.286,11.838 23.116,11.4 23.092,10.832 C23.084,10.712 23.08,10.554 23.08,10.358 L23.08075,10.218125 C23.08225,10.085375 23.086,9.974 23.092,9.884 C23.116,9.364 23.288,8.952 23.608,8.648 C23.928,8.344 24.336,8.192 24.832,8.192 C25.36,8.192 25.776,8.36 26.08,8.696 C26.384,9.032 26.552,9.488 26.584,10.064 C26.592,10.288 26.592,10.512 26.584,10.736 C26.552,11.312 26.384,11.768 26.08,12.104 C25.776,12.44 25.36,12.608 24.832,12.608 Z M31.732,13.64 C32.164,13.64 32.548,13.574 32.884,13.442 C33.22,13.31 33.508,13.128 33.748,12.896 C33.988,12.664 34.176,12.384 34.312,12.056 C34.448,11.728 34.536,11.364 34.576,10.964 C34.584,10.9 34.588,10.818 34.588,10.718 L34.588,10.718 L34.588,10.094 C34.588,9.994 34.584,9.908 34.576,9.836 C34.544,9.444 34.458,9.082 34.318,8.75 C34.178,8.418 33.988,8.136 33.748,7.904 C33.508,7.672 33.22,7.49 32.884,7.358 C32.548,7.226 32.164,7.16 31.732,7.16 C31.3,7.16 30.916,7.226 30.58,7.358 C30.244,7.49 29.956,7.672 29.716,7.904 C29.476,8.136 29.286,8.418 29.146,8.75 C29.006,9.082 28.92,9.444 28.888,9.836 C28.88,9.908 28.874,9.994 28.87,10.094 C28.866,10.194 28.864,10.298 28.864,10.406 C28.864,10.514 28.866,10.618 28.87,10.718 C28.874,10.818 28.88,10.9 28.888,10.964 C28.92,11.364 29.006,11.728 29.146,12.056 C29.286,12.384 29.476,12.664 29.716,12.896 C29.956,13.128 30.244,13.31 30.58,13.442 C30.916,13.574 31.3,13.64 31.732,13.64 Z M31.732,12.608 C31.452,12.608 31.208,12.564 31,12.476 C30.792,12.388 30.616,12.268 30.472,12.116 C30.328,11.964 30.216,11.784 30.136,11.576 C30.056,11.368 30.004,11.144 29.98,10.904 C29.964,10.768 29.956,10.602 29.956,10.406 C29.956,10.21 29.964,10.04 29.98,9.896 C30.004,9.656 30.056,9.432 30.136,9.224 C30.216,9.016 30.328,8.836 30.472,8.684 C30.616,8.532 30.792,8.412 31,8.324 C31.208,8.236 31.452,8.192 31.732,8.192 C32.012,8.192 32.256,8.236 32.464,8.324 C32.672,8.412 32.848,8.532 32.992,8.684 C33.136,8.836 33.248,9.016 33.328,9.224 C33.408,9.432 33.46,9.656 33.484,9.896 C33.5,10.04 33.508,10.21 33.508,10.406 C33.508,10.602 33.5,10.768 33.484,10.904 C33.46,11.144 33.408,11.368 33.328,11.576 C33.248,11.784 33.136,11.964 32.992,12.116 C32.848,12.268 32.672,12.388 32.464,12.476 C32.256,12.564 32.012,12.608 31.732,12.608 Z M36.868,15.8 C36.956,15.8 37.032,15.768 37.096,15.704 C37.16,15.64 37.192,15.564 37.192,15.476 L37.192,15.476 L37.192,12.824 C37.344,13.024 37.568,13.21 37.864,13.382 C38.16,13.554 38.556,13.64 39.052,13.64 C39.428,13.64 39.778,13.574 40.102,13.442 C40.426,13.31 40.708,13.122 40.948,12.878 C41.188,12.634 41.38,12.336 41.524,11.984 C41.668,11.632 41.752,11.236 41.776,10.796 C41.784,10.676 41.788,10.546 41.788,10.406 C41.788,10.266 41.784,10.136 41.776,10.016 C41.752,9.576 41.668,9.18 41.524,8.828 C41.38,8.476 41.188,8.176 40.948,7.928 C40.708,7.68 40.426,7.49 40.102,7.358 C39.778,7.226 39.428,7.16 39.052,7.16 C38.564,7.16 38.172,7.242 37.876,7.406 C37.58,7.57 37.352,7.76 37.192,7.976 L37.192,7.976 L37.192,7.604 C37.192,7.516 37.16,7.44 37.096,7.376 C37.032,7.312 36.956,7.28 36.868,7.28 L36.868,7.28 L36.424,7.28 C36.336,7.28 36.26,7.312 36.196,7.376 C36.132,7.44 36.1,7.516 36.1,7.604 L36.1,7.604 L36.1,15.476 C36.1,15.564 36.132,15.64 36.196,15.704 C36.26,15.768 36.336,15.8 36.424,15.8 L36.424,15.8 L36.868,15.8 Z M38.932,12.608 C38.428,12.608 38.018,12.454 37.702,12.146 C37.386,11.838 37.216,11.4 37.192,10.832 C37.184,10.712 37.18,10.554 37.18,10.358 L37.18075,10.218125 C37.18225,10.085375 37.186,9.974 37.192,9.884 C37.216,9.364 37.388,8.952 37.708,8.648 C38.028,8.344 38.436,8.192 38.932,8.192 C39.46,8.192 39.876,8.36 40.18,8.696 C40.484,9.032 40.652,9.488 40.684,10.064 C40.692,10.288 40.692,10.512 40.684,10.736 C40.652,11.312 40.484,11.768 40.18,12.104 C39.876,12.44 39.46,12.608 38.932,12.608 Z M45.748,13.64 C46.236,13.64 46.62,13.554 46.9,13.382 C47.18,13.21 47.396,13.024 47.548,12.824 L47.548,12.824 L47.548,13.196 C47.548,13.284 47.58,13.36 47.644,13.424 C47.708,13.488 47.784,13.52 47.872,13.52 L47.872,13.52 L48.316,13.52 C48.404,13.52 48.48,13.488 48.544,13.424 C48.608,13.36 48.64,13.284 48.64,13.196 L48.64,13.196 L48.64,7.604 C48.64,7.516 48.608,7.44 48.544,7.376 C48.48,7.312 48.404,7.28 48.316,7.28 L48.316,7.28 L47.872,7.28 C47.784,7.28 47.708,7.312 47.644,7.376 C47.58,7.44 47.548,7.516 47.548,7.604 L47.548,7.604 L47.548,10.772 C47.548,11.388 47.404,11.848 47.116,12.152 C46.828,12.456 46.432,12.608 45.928,12.608 C45.4,12.608 44.998,12.456 44.722,12.152 C44.446,11.848 44.308,11.388 44.308,10.772 L44.308,10.772 L44.308,7.604 C44.308,7.516 44.276,7.44 44.212,7.376 C44.148,7.312 44.072,7.28 43.984,7.28 L43.984,7.28 L43.54,7.28 C43.452,7.28 43.376,7.312 43.312,7.376 C43.248,7.44 43.216,7.516 43.216,7.604 L43.216,7.604 L43.216,10.952 C43.216,11.376 43.276,11.754 43.396,12.086 C43.516,12.418 43.688,12.698 43.912,12.926 C44.136,13.154 44.404,13.33 44.716,13.454 C45.028,13.578 45.372,13.64 45.748,13.64 Z M51.208,13.52 C51.296,13.52 51.372,13.488 51.436,13.424 C51.5,13.36 51.532,13.284 51.532,13.196 L51.532,13.196 L51.532,5.324 C51.532,5.236 51.5,5.16 51.436,5.096 C51.372,5.032 51.296,5 51.208,5 L51.208,5 L50.764,5 C50.676,5 50.6,5.032 50.536,5.096 C50.472,5.16 50.44,5.236 50.44,5.324 L50.44,5.324 L50.44,13.196 C50.44,13.284 50.472,13.36 50.536,13.424 C50.6,13.488 50.676,13.52 50.764,13.52 L50.764,13.52 L51.208,13.52 Z M54.976,13.64 C55.16,13.64 55.358,13.62 55.57,13.58 C55.782,13.54 55.986,13.48 56.182,13.4 C56.378,13.32 56.552,13.222 56.704,13.106 C56.856,12.99 56.968,12.856 57.04,12.704 L57.04,12.704 L57.04,13.196 C57.04,13.284 57.072,13.36 57.136,13.424 C57.2,13.488 57.276,13.52 57.364,13.52 L57.364,13.52 L57.808,13.52 C57.896,13.52 57.972,13.488 58.036,13.424 C58.1,13.36 58.132,13.284 58.132,13.196 L58.132,13.196 L58.132,9.536 C58.132,9.152 58.07,8.812 57.946,8.516 C57.822,8.22 57.65,7.972 57.43,7.772 C57.21,7.572 56.946,7.42 56.638,7.316 C56.33,7.212 55.996,7.16 55.636,7.16 C55.324,7.16 55.03,7.206 54.754,7.298 C54.478,7.39 54.234,7.508 54.022,7.652 C53.81,7.796 53.642,7.96 53.518,8.144 C53.394,8.328 53.324,8.508 53.308,8.684 C53.3,8.772 53.33,8.848 53.398,8.912 C53.466,8.976 53.544,9.008 53.632,9.008 L53.632,9.008 L53.992,9.008 C54.088,9.008 54.164,8.996 54.22,8.972 C54.276,8.948 54.328,8.904 54.376,8.84 C54.504,8.664 54.658,8.512 54.838,8.384 C55.018,8.256 55.284,8.192 55.636,8.192 C56.036,8.192 56.37,8.294 56.638,8.498 C56.906,8.702 57.04,9.008 57.04,9.416 L57.04,9.416 L57.04,9.572 L55.348,9.848 C55.012,9.904 54.694,9.984 54.394,10.088 C54.094,10.192 53.832,10.328 53.608,10.496 C53.384,10.664 53.208,10.868 53.08,11.108 C52.952,11.348 52.888,11.628 52.888,11.948 C52.888,12.188 52.938,12.412 53.038,12.62 C53.138,12.828 53.278,13.006 53.458,13.154 C53.638,13.302 53.858,13.42 54.118,13.508 C54.378,13.596 54.664,13.64 54.976,13.64 Z M55.096,12.608 C54.888,12.608 54.714,12.584 54.574,12.536 C54.434,12.488 54.32,12.424 54.232,12.344 C54.144,12.264 54.08,12.18 54.04,12.092 C54,12.004 53.98,11.916 53.98,11.828 C53.98,11.548 54.128,11.32 54.424,11.144 C54.72,10.968 55.12,10.84 55.624,10.76 L55.624,10.76 L57.04,10.532 L57.04,10.832 C57.04,11.096 56.994,11.336 56.902,11.552 C56.81,11.768 56.678,11.954 56.506,12.11 C56.334,12.266 56.128,12.388 55.888,12.476 C55.648,12.564 55.384,12.608 55.096,12.608 Z M60.652,13.52 C60.74,13.52 60.816,13.488 60.88,13.424 C60.944,13.36 60.976,13.284 60.976,13.196 L60.976,13.196 L60.976,9.692 C60.976,8.772 61.436,8.312 62.356,8.312 L62.356,8.312 L63.052,8.312 C63.14,8.312 63.216,8.28 63.28,8.216 C63.344,8.152 63.376,8.076 63.376,7.988 L63.376,7.988 L63.376,7.604 C63.376,7.516 63.344,7.44 63.28,7.376 C63.216,7.312 63.14,7.28 63.052,7.28 L63.052,7.28 L62.428,7.28 C62.068,7.28 61.776,7.336 61.552,7.448 C61.328,7.56 61.136,7.736 60.976,7.976 L60.976,7.976 L60.976,7.604 C60.976,7.516 60.944,7.44 60.88,7.376 C60.816,7.312 60.74,7.28 60.652,7.28 L60.652,7.28 L60.208,7.28 C60.12,7.28 60.044,7.312 59.98,7.376 C59.916,7.44 59.884,7.516 59.884,7.604 L59.884,7.604 L59.884,13.196 C59.884,13.284 59.916,13.36 59.98,13.424 C60.044,13.488 60.12,13.52 60.208,13.52 L60.208,13.52 L60.652,13.52 Z" id="popular" fill="#E93535" fill-rule="nonzero"></path>
            </g>
        </g>
    </g>
</svg>