<svg width="137" height="32" viewBox="0 0 137 32" fill="none" xmlns="http://www.w3.org/2000/svg">
<path d="M14.5371 0H123.565C131.594 0 136.649 6.82233 136.649 15.2381V16.7619C136.649 25.1777 131.594 32 123.565 32H0V15.2381C0 6.82233 6.50848 0 14.5371 0Z" fill="#FFBF41" fill-opacity="0.2"/>
<g clip-path="url(#clip0)">
<path d="M20.1386 14.3084C17.556 11.7261 14.7241 10.371 13.8131 11.2816C13.7132 11.3863 13.6396 11.5133 13.5985 11.6521L13.5839 11.6375L12.7139 15.2028L11.8475 18.7574L10.8206 22.9664L10.1705 25.632L14.0194 24.1756L18.9148 22.3233L22.8203 20.8456L22.8156 20.8409C22.9463 20.7992 23.066 20.7285 23.1655 20.634C24.0764 19.723 22.7213 16.8911 20.1386 14.3084Z" fill="#DD1C4B"/>
<path d="M20.1386 14.3073C17.556 11.7248 14.7241 10.3696 13.8132 11.2804C12.9023 12.1913 14.2575 15.0233 16.8401 17.6058C19.4227 20.1884 22.2546 21.5436 23.1655 20.6327C24.0764 19.7219 22.7212 16.8899 20.1386 14.3073Z" fill="#D1E3EE"/>
<path d="M22.4657 20.9609C21.9994 20.969 21.5368 20.8772 21.1089 20.6917L17.9168 21.8995L13.0198 23.7501L10.3938 24.7437L10.1705 25.659L14.0194 24.2026L18.9148 22.3503L22.4991 20.9942L22.4657 20.9609Z" fill="#B21D48"/>
<path d="M26.4975 18.3285C26.4576 18.3284 26.418 18.3212 26.3805 18.3075C24.689 17.6738 22.8605 17.4961 21.0786 17.7924L19.8884 17.9906C19.7062 18.0166 19.5374 17.89 19.5114 17.7078C19.4863 17.5318 19.6038 17.3671 19.7784 17.3335L20.9689 17.1336C22.8663 16.8184 24.8132 17.0074 26.6144 17.6817C26.7876 17.744 26.8775 17.9348 26.8153 18.108C26.7672 18.2418 26.6396 18.3303 26.4975 18.3285Z" fill="#FFBF41"/>
<path d="M20.4997 16.3292C20.3157 16.3282 20.1674 16.1781 20.1685 15.9941C20.1692 15.867 20.2421 15.7515 20.3564 15.6962L27.3537 12.3641C27.5199 12.285 27.7187 12.3555 27.7979 12.5217C27.877 12.6879 27.8064 12.8867 27.6402 12.9659L20.643 16.2979C20.5982 16.3189 20.5492 16.3296 20.4997 16.3292Z" fill="#FFBF41"/>
<path d="M16.6032 15.6628C16.5593 15.6628 16.5158 15.6541 16.4753 15.6371C16.3054 15.5662 16.2252 15.3712 16.296 15.2013V15.2013L16.7805 14.0387C17.5259 12.2575 17.6997 10.2888 17.278 8.40458C17.2348 8.22569 17.3447 8.04568 17.5236 8.00244C17.7025 7.95921 17.8825 8.06921 17.9257 8.24805C17.9267 8.25201 17.9276 8.25597 17.9284 8.25997C18.3802 10.2784 18.1939 12.3873 17.3953 14.2953L16.9105 15.4578C16.8587 15.5818 16.7376 15.6626 16.6032 15.6628Z" fill="#FFBF41"/>
<path d="M28.1635 19.6612C28.5315 19.6612 28.8299 19.3628 28.8299 18.9948C28.8299 18.6267 28.5315 18.3284 28.1635 18.3284C27.7954 18.3284 27.4971 18.6267 27.4971 18.9948C27.4971 19.3628 27.7954 19.6612 28.1635 19.6612Z" fill="#D5557E"/>
<path d="M20.1665 10.3316C20.5346 10.3316 20.8329 10.0332 20.8329 9.66519C20.8329 9.29714 20.5346 8.99878 20.1665 8.99878C19.7985 8.99878 19.5001 9.29714 19.5001 9.66519C19.5001 10.0332 19.7985 10.3316 20.1665 10.3316Z" fill="#DD95C1"/>
<path d="M17.1677 7.33281C16.7997 7.33281 16.5013 7.03447 16.5013 6.66641C16.5013 6.29834 16.7997 6 17.1677 6C17.5358 6 17.8342 6.29834 17.8342 6.66641C17.8342 7.03447 17.5358 7.33281 17.1677 7.33281Z" fill="#7FCCCB"/>
<path d="M26.4974 8.66587C26.3134 8.66587 26.1642 8.51668 26.1642 8.33267V7.99946C26.1642 7.81545 26.3134 7.66626 26.4974 7.66626C26.6814 7.66626 26.8306 7.81545 26.8306 7.99946V8.33267C26.8306 8.51668 26.6814 8.66587 26.4974 8.66587Z" fill="#2276BB"/>
<path d="M26.4974 6.99961C26.3134 6.99961 26.1642 6.85042 26.1642 6.66641V6.3332C26.1642 6.14919 26.3134 6 26.4974 6C26.6814 6 26.8306 6.14919 26.8306 6.3332V6.66641C26.8306 6.85042 26.6814 6.99961 26.4974 6.99961Z" fill="#2276BB"/>
<path d="M27.497 7.66592H27.1638C26.9798 7.66592 26.8306 7.51673 26.8306 7.33272C26.8306 7.1487 26.9798 6.99951 27.1638 6.99951H27.497C27.681 6.99951 27.8302 7.1487 27.8302 7.33272C27.8302 7.51673 27.681 7.66592 27.497 7.66592Z" fill="#2276BB"/>
<path d="M25.831 7.66592H25.4978C25.3137 7.66592 25.1646 7.51673 25.1646 7.33272C25.1646 7.1487 25.3137 6.99951 25.4978 6.99951H25.831C26.015 6.99951 26.1642 7.1487 26.1642 7.33272C26.1642 7.51673 26.015 7.66592 25.831 7.66592Z" fill="#2276BB"/>
<path d="M12.8155 15.6629C12.7782 15.5203 12.7449 15.3763 12.7139 15.2297L11.8475 18.7844L11.9142 19.597C12.0594 21.3297 12.8037 22.9575 14.019 24.2009L18.9148 22.3503C18.8881 22.342 18.8605 22.336 18.8338 22.327C15.8652 21.2139 13.6213 18.7292 12.8155 15.6629Z" fill="white"/>
<path d="M18.9147 22.35C18.888 22.3416 18.8604 22.3356 18.8337 22.3266C18.513 22.2052 18.1989 22.067 17.8928 21.9125L13.4832 23.5808C13.6503 23.7977 13.8293 24.0051 14.0193 24.2022L18.9147 22.35Z" fill="#F6F6E7"/>
<path d="M24.1651 9.99146V11.6645H22.4921V9.99146H24.1651Z" fill="#C9DA53"/>
<path d="M18.1673 15.996C17.9833 15.996 17.8342 15.8468 17.8342 15.6628C17.8343 15.5684 17.8743 15.4785 17.9444 15.4153L21.2765 12.4164C21.4156 12.296 21.626 12.3112 21.7465 12.4504C21.8635 12.5857 21.8529 12.7893 21.7223 12.9116L18.3903 15.9104C18.3291 15.9655 18.2497 15.996 18.1673 15.996Z" fill="#FFBF41"/>
<path d="M27.8303 14.6633C27.6463 14.6633 27.4971 14.5141 27.4971 14.3301V13.9969C27.4971 13.8129 27.6463 13.6637 27.8303 13.6637C28.0143 13.6637 28.1635 13.8129 28.1635 13.9969V14.3301C28.1635 14.5141 28.0143 14.6633 27.8303 14.6633Z" fill="#FFDB43"/>
<path d="M29.0085 14.175C28.9201 14.1752 28.8353 14.1401 28.773 14.0774L28.5374 13.8418C28.4096 13.7094 28.4132 13.4985 28.5456 13.3706C28.6747 13.2459 28.8794 13.2459 29.0085 13.3706L29.2441 13.6062C29.3742 13.7364 29.3742 13.9473 29.244 14.0774C29.1816 14.1399 29.0969 14.175 29.0085 14.175Z" fill="#FFDB43"/>
<path d="M29.4964 12.9976H29.1632C28.9791 12.9976 28.83 12.8484 28.83 12.6644C28.83 12.4804 28.9791 12.3312 29.1632 12.3312H29.4964C29.6804 12.3312 29.8296 12.4804 29.8296 12.6644C29.8296 12.8484 29.6804 12.9976 29.4964 12.9976Z" fill="#FFDB43"/>
<path d="M28.7729 12.0548C28.5889 12.0547 28.4398 11.9055 28.4398 11.7215C28.4398 11.6331 28.4749 11.5484 28.5374 11.486L28.7729 11.2504C28.9053 11.1225 29.1162 11.1262 29.2441 11.2586C29.3688 11.3877 29.3688 11.5924 29.2441 11.7216L29.0085 11.9571C28.946 12.0196 28.8613 12.0548 28.7729 12.0548Z" fill="#FFDB43"/>
<path d="M27.8303 11.6645C27.6463 11.6645 27.4971 11.5153 27.4971 11.3313V10.9981C27.4971 10.8141 27.6463 10.6649 27.8303 10.6649C28.0143 10.6649 28.1635 10.8141 28.1635 10.9981V11.3313C28.1635 11.5153 28.0143 11.6645 27.8303 11.6645Z" fill="#FFDB43"/>
<path d="M26.8877 12.055C26.7993 12.055 26.7146 12.0198 26.6521 11.9574L26.4165 11.7218C26.2887 11.5894 26.2923 11.3785 26.4247 11.2506C26.5538 11.1259 26.7585 11.1259 26.8877 11.2506L27.1233 11.4862C27.2534 11.6164 27.2533 11.8273 27.1232 11.9574C27.0608 12.0199 26.976 12.055 26.8877 12.055Z" fill="#FFDB43"/>
<path d="M11.8365 6.33313L12.3513 7.37639L13.5026 7.54366L12.6696 8.35568L12.8661 9.50223L11.8365 8.96077L10.807 9.50223L11.0035 8.35568L10.1705 7.54366L11.3218 7.37639L11.8365 6.33313Z" fill="#FFDB43"/>
<path d="M29.7241 24.0484C29.5656 23.4867 29.2007 23.0058 28.7025 22.7019L28.5652 22.496C27.7955 21.3449 26.5851 20.5622 25.2195 20.3325C25.0374 20.3065 24.8686 20.4331 24.8426 20.6153C24.8175 20.7913 24.935 20.956 25.1096 20.9896C26.0945 21.1567 26.9921 21.6571 27.6523 22.407C27.0973 22.5068 26.6119 22.8402 26.3195 23.3223C25.9606 23.965 26.1907 24.7769 26.8334 25.1358C27.4761 25.4946 28.288 25.2645 28.6469 24.6218C28.7839 24.3572 28.858 24.0644 28.8631 23.7665C29.2177 24.2814 29.246 24.9538 28.9361 25.4968C28.8422 25.6551 28.8944 25.8595 29.0527 25.9534C29.2109 26.0473 29.4154 25.9951 29.5092 25.8368C29.5122 25.8317 29.5151 25.8266 29.5179 25.8213C29.8206 25.2816 29.8948 24.6432 29.7241 24.0484ZM28.0658 24.2966C27.8879 24.6189 27.4825 24.7359 27.1603 24.558C26.8381 24.3802 26.721 23.9748 26.8989 23.6526C26.8999 23.6508 26.9009 23.649 26.9019 23.6472C27.0985 23.3252 27.4302 23.1094 27.8042 23.0601C27.8621 23.0585 27.9195 23.0718 27.9708 23.0987C28.252 23.2557 28.267 23.9361 28.0658 24.2966Z" fill="#2BB3CE"/>
</g>
<path d="M38.632 21C38.5253 21 38.4347 20.9627 38.36 20.888C38.2853 20.8133 38.248 20.7227 38.248 20.616V10.2C38.248 10.0827 38.28 9.98667 38.344 9.912C38.4187 9.83733 38.5147 9.8 38.632 9.8H40.088C40.2053 9.8 40.296 9.83733 40.36 9.912C40.4347 9.98667 40.472 10.0827 40.472 10.2V14.328H45.192V10.2C45.192 10.0827 45.224 9.98667 45.288 9.912C45.3627 9.83733 45.4587 9.8 45.576 9.8H47.016C47.1333 9.8 47.2293 9.83733 47.304 9.912C47.3787 9.98667 47.416 10.0827 47.416 10.2V20.616C47.416 20.7333 47.3787 20.8293 47.304 20.904C47.2293 20.968 47.1333 21 47.016 21H45.576C45.4693 21 45.3787 20.9627 45.304 20.888C45.2293 20.8133 45.192 20.7227 45.192 20.616V16.328H40.472V20.616C40.472 20.7227 40.4347 20.8133 40.36 20.888C40.296 20.9627 40.2053 21 40.088 21H38.632ZM52.1283 21.16C51.5843 21.16 51.0829 21.0533 50.6243 20.84C50.1763 20.616 49.8189 20.3173 49.5523 19.944C49.2963 19.5707 49.1683 19.16 49.1683 18.712C49.1683 17.9867 49.4616 17.4 50.0483 16.952C50.6349 16.504 51.4403 16.2 52.4643 16.04L54.6563 15.72V15.384C54.6563 14.9147 54.5389 14.5627 54.3043 14.328C54.0696 14.0933 53.6909 13.976 53.1683 13.976C52.8163 13.976 52.5283 14.0453 52.3043 14.184C52.0909 14.312 51.9203 14.44 51.7923 14.568C51.6643 14.7067 51.5789 14.7973 51.5363 14.84C51.4936 14.968 51.4136 15.032 51.2963 15.032H50.0643C49.9683 15.032 49.8829 15 49.8083 14.936C49.7443 14.872 49.7122 14.7867 49.7122 14.68C49.7229 14.4133 49.8509 14.1093 50.0963 13.768C50.3523 13.4267 50.7416 13.1333 51.2643 12.888C51.7869 12.6427 52.4269 12.52 53.1843 12.52C54.4429 12.52 55.3603 12.8027 55.9363 13.368C56.5123 13.9333 56.8003 14.6747 56.8003 15.592V20.616C56.8003 20.7227 56.7629 20.8133 56.6883 20.888C56.6243 20.9627 56.5336 21 56.4163 21H55.1203C55.0136 21 54.9229 20.9627 54.8483 20.888C54.7736 20.8133 54.7363 20.7227 54.7363 20.616V19.992C54.5016 20.3333 54.1656 20.616 53.7283 20.84C53.3016 21.0533 52.7683 21.16 52.1283 21.16ZM52.6723 19.64C53.2589 19.64 53.7389 19.448 54.1123 19.064C54.4856 18.68 54.6723 18.12 54.6723 17.384V17.048L53.0723 17.304C52.4536 17.4 51.9843 17.5547 51.6643 17.768C51.3549 17.9813 51.2003 18.2427 51.2003 18.552C51.2003 18.8933 51.3443 19.16 51.6323 19.352C51.9203 19.544 52.2669 19.64 52.6723 19.64ZM59.2529 24.04C59.1462 24.04 59.0555 24.0027 58.9809 23.928C58.9062 23.864 58.8689 23.7733 58.8689 23.656V13.064C58.8689 12.9467 58.9062 12.856 58.9809 12.792C59.0555 12.7173 59.1462 12.68 59.2529 12.68H60.5169C60.6342 12.68 60.7249 12.7173 60.7889 12.792C60.8635 12.856 60.9009 12.9467 60.9009 13.064V13.704C61.4982 12.9147 62.3515 12.52 63.4609 12.52C64.5382 12.52 65.3649 12.8613 65.9409 13.544C66.5169 14.216 66.8262 15.128 66.8689 16.28C66.8795 16.408 66.8849 16.5947 66.8849 16.84C66.8849 17.096 66.8795 17.288 66.8689 17.416C66.8262 18.536 66.5169 19.4427 65.9409 20.136C65.3649 20.8187 64.5382 21.16 63.4609 21.16C62.3835 21.16 61.5622 20.7813 60.9969 20.024V23.656C60.9969 23.7733 60.9595 23.864 60.8849 23.928C60.8209 24.0027 60.7302 24.04 60.6129 24.04H59.2529ZM62.8689 19.448C64.0209 19.448 64.6342 18.7387 64.7089 17.32C64.7195 17.2133 64.7249 17.0533 64.7249 16.84C64.7249 16.6267 64.7195 16.4667 64.7089 16.36C64.6342 14.9413 64.0209 14.232 62.8689 14.232C62.2502 14.232 61.7915 14.4293 61.4929 14.824C61.1942 15.2187 61.0289 15.704 60.9969 16.28L60.9809 16.888L60.9969 17.512C61.0182 18.0453 61.1835 18.504 61.4929 18.888C61.8129 19.2613 62.2715 19.448 62.8689 19.448ZM69.081 24.04C68.9743 24.04 68.8837 24.0027 68.809 23.928C68.7343 23.864 68.697 23.7733 68.697 23.656V13.064C68.697 12.9467 68.7343 12.856 68.809 12.792C68.8837 12.7173 68.9743 12.68 69.081 12.68H70.345C70.4623 12.68 70.553 12.7173 70.617 12.792C70.6917 12.856 70.729 12.9467 70.729 13.064V13.704C71.3263 12.9147 72.1797 12.52 73.289 12.52C74.3663 12.52 75.193 12.8613 75.769 13.544C76.345 14.216 76.6543 15.128 76.697 16.28C76.7077 16.408 76.713 16.5947 76.713 16.84C76.713 17.096 76.7077 17.288 76.697 17.416C76.6543 18.536 76.345 19.4427 75.769 20.136C75.193 20.8187 74.3663 21.16 73.289 21.16C72.2117 21.16 71.3903 20.7813 70.825 20.024V23.656C70.825 23.7733 70.7877 23.864 70.713 23.928C70.649 24.0027 70.5583 24.04 70.441 24.04H69.081ZM72.697 19.448C73.849 19.448 74.4623 18.7387 74.537 17.32C74.5477 17.2133 74.553 17.0533 74.553 16.84C74.553 16.6267 74.5477 16.4667 74.537 16.36C74.4623 14.9413 73.849 14.232 72.697 14.232C72.0783 14.232 71.6197 14.4293 71.321 14.824C71.0223 15.2187 70.857 15.704 70.825 16.28L70.809 16.888L70.825 17.512C70.8463 18.0453 71.0117 18.504 71.321 18.888C71.641 19.2613 72.0997 19.448 72.697 19.448ZM79.6694 24.04C79.584 24.04 79.5094 24.008 79.4454 23.944C79.3814 23.88 79.3494 23.8053 79.3494 23.72C79.3494 23.624 79.3707 23.5387 79.4134 23.464L80.6614 20.504L77.5894 13.256C77.5467 13.16 77.5254 13.0853 77.5254 13.032C77.536 12.936 77.5734 12.856 77.6374 12.792C77.7014 12.7173 77.7814 12.68 77.8774 12.68H79.1734C79.376 12.68 79.52 12.7813 79.6054 12.984L81.7334 18.216L83.9254 12.984C84.0107 12.7813 84.1547 12.68 84.3574 12.68H85.6374C85.7227 12.68 85.7974 12.712 85.8614 12.776C85.936 12.84 85.9734 12.9147 85.9734 13C85.9734 13.0747 85.952 13.16 85.9094 13.256L81.3814 23.736C81.2854 23.9387 81.136 24.04 80.9334 24.04H79.6694ZM90.9873 21C90.8806 21 90.7899 20.9627 90.7153 20.888C90.6406 20.8133 90.6033 20.7227 90.6033 20.616V10.024C90.6033 9.90667 90.6406 9.816 90.7153 9.752C90.7899 9.67733 90.8806 9.64 90.9873 9.64H92.4113C92.5286 9.64 92.6193 9.67733 92.6833 9.752C92.7579 9.816 92.7953 9.90667 92.7953 10.024V13.672C93.4353 12.904 94.2993 12.52 95.3873 12.52C96.3686 12.52 97.1526 12.8453 97.7393 13.496C98.3259 14.136 98.6193 15.0107 98.6193 16.12V20.616C98.6193 20.7227 98.5819 20.8133 98.5073 20.888C98.4433 20.9627 98.3526 21 98.2353 21H96.7953C96.6886 21 96.5979 20.9627 96.5233 20.888C96.4486 20.8133 96.4113 20.7227 96.4113 20.616V16.216C96.4113 15.5867 96.2566 15.1013 95.9473 14.76C95.6486 14.408 95.2113 14.232 94.6353 14.232C94.0699 14.232 93.6219 14.408 93.2913 14.76C92.9606 15.112 92.7953 15.5973 92.7953 16.216V20.616C92.7953 20.7227 92.7579 20.8133 92.6833 20.888C92.6193 20.9627 92.5286 21 92.4113 21H90.9873ZM104.33 21.16C103.082 21.16 102.116 20.84 101.434 20.2C100.751 19.5493 100.383 18.664 100.33 17.544L100.314 16.84L100.33 16.136C100.383 15.0267 100.756 14.1467 101.45 13.496C102.143 12.8453 103.103 12.52 104.33 12.52C105.556 12.52 106.516 12.8453 107.21 13.496C107.903 14.1467 108.276 15.0267 108.33 16.136C108.34 16.264 108.346 16.4987 108.346 16.84C108.346 17.1813 108.34 17.416 108.33 17.544C108.276 18.664 107.908 19.5493 107.226 20.2C106.543 20.84 105.578 21.16 104.33 21.16ZM104.33 19.576C104.895 19.576 105.332 19.4 105.642 19.048C105.951 18.6853 106.122 18.1573 106.154 17.464C106.164 17.3573 106.17 17.1493 106.17 16.84C106.17 16.5307 106.164 16.3227 106.154 16.216C106.122 15.5227 105.951 15 105.642 14.648C105.332 14.2853 104.895 14.104 104.33 14.104C103.764 14.104 103.327 14.2853 103.018 14.648C102.708 15 102.538 15.5227 102.506 16.216L102.49 16.84L102.506 17.464C102.538 18.1573 102.708 18.6853 103.018 19.048C103.327 19.4 103.764 19.576 104.33 19.576ZM113.207 21.16C112.225 21.16 111.452 20.84 110.887 20.2C110.321 19.5493 110.039 18.6693 110.039 17.56V13.064C110.039 12.9573 110.076 12.8667 110.151 12.792C110.225 12.7173 110.316 12.68 110.423 12.68H111.831C111.948 12.68 112.039 12.7173 112.103 12.792C112.177 12.856 112.215 12.9467 112.215 13.064V17.464C112.215 18.7867 112.796 19.448 113.959 19.448C114.513 19.448 114.951 19.272 115.271 18.92C115.601 18.568 115.767 18.0827 115.767 17.464V13.064C115.767 12.9573 115.804 12.8667 115.879 12.792C115.953 12.7173 116.044 12.68 116.151 12.68H117.559C117.676 12.68 117.767 12.7173 117.831 12.792C117.905 12.856 117.943 12.9467 117.943 13.064V20.616C117.943 20.7227 117.905 20.8133 117.831 20.888C117.767 20.9627 117.676 21 117.559 21H116.263C116.156 21 116.065 20.9627 115.991 20.888C115.916 20.8133 115.879 20.7227 115.879 20.616V19.96C115.281 20.76 114.391 21.16 113.207 21.16ZM120.44 21C120.333 21 120.243 20.9627 120.168 20.888C120.093 20.8133 120.056 20.7227 120.056 20.616V13.08C120.056 12.9733 120.093 12.8827 120.168 12.808C120.243 12.7227 120.333 12.68 120.44 12.68H121.736C121.853 12.68 121.949 12.7173 122.024 12.792C122.099 12.8667 122.136 12.9627 122.136 13.08V13.736C122.392 13.3947 122.712 13.1333 123.096 12.952C123.491 12.7707 123.939 12.68 124.44 12.68H125.096C125.213 12.68 125.304 12.7173 125.368 12.792C125.443 12.856 125.48 12.9467 125.48 13.064V14.216C125.48 14.3227 125.443 14.4133 125.368 14.488C125.304 14.5627 125.213 14.6 125.096 14.6H123.848C123.347 14.6 122.952 14.744 122.664 15.032C122.376 15.32 122.232 15.7147 122.232 16.216V20.616C122.232 20.7227 122.195 20.8133 122.12 20.888C122.045 20.9627 121.949 21 121.832 21H120.44Z" fill="#FFBF41"/>
<defs>
<clipPath id="clip0">
<rect width="20" height="20" fill="white" transform="translate(10 6)"/>
</clipPath>
</defs>
</svg>
