<svg width="12" height="12" viewBox="0 0 12 12" fill="none" xmlns="http://www.w3.org/2000/svg">
    <g clip-path="url(#clip0)">
        <path d="M6.08316 4.98514C4.53357 3.43574 2.83443 2.62266 2.28784 3.16904C2.22787 3.23187 2.18373 3.30806 2.15909 3.39136L2.1503 3.38256L1.6283 5.52173L1.1085 7.6545L0.492343 10.1799L0.102295 11.7793L2.4116 10.9054L5.34885 9.79406L7.69214 8.90741L7.68934 8.90461C7.76778 8.87959 7.83956 8.83716 7.89926 8.78046C8.44584 8.23387 7.63276 6.53473 6.08316 4.98514Z" fill="#DD1C4B"/>
        <path d="M6.08309 4.98437C4.53355 3.43483 2.83436 2.62172 2.28784 3.16824C1.74133 3.71475 2.55444 5.41394 4.10398 6.96348C5.65352 8.51302 7.35271 9.32613 7.89922 8.77961C8.44574 8.23309 7.63263 6.53391 6.08309 4.98437Z" fill="#D1E3EE"/>
        <path d="M7.47942 8.97648C7.19963 8.98138 6.92204 8.9263 6.66534 8.81494L4.75008 9.53966L1.81183 10.65L0.236243 11.2462L0.102295 11.7954L2.4116 10.9215L5.34885 9.81015L7.49941 8.99647L7.47942 8.97648Z" fill="#B21D48"/>
        <path d="M9.89848 7.39702C9.87453 7.39695 9.85079 7.39268 9.8283 7.38443C8.81337 7.0042 7.71628 6.89759 6.64714 7.07535L5.93302 7.1943C5.82371 7.2099 5.72245 7.13393 5.70686 7.02462C5.69179 6.91901 5.76229 6.82017 5.86705 6.80005L6.58137 6.6801C7.71978 6.49095 8.88789 6.60438 9.96865 7.00897C10.0726 7.04631 10.1265 7.16081 10.0892 7.26473C10.0603 7.34499 9.98377 7.39812 9.89848 7.39702Z" fill="#FFBF41"/>
        <path d="M6.29995 6.19749C6.18954 6.19684 6.10055 6.1068 6.1012 5.9964C6.10165 5.92018 6.14538 5.85085 6.21398 5.81764L10.4123 3.81842C10.512 3.77094 10.6314 3.81327 10.6788 3.91299C10.7263 4.0127 10.684 4.132 10.5843 4.17948L6.38591 6.1787C6.35902 6.19127 6.32966 6.19769 6.29995 6.19749Z" fill="#FFBF41"/>
        <path d="M3.962 5.79763C3.93563 5.79768 3.90952 5.79245 3.88523 5.78223C3.78332 5.73972 3.73516 5.62267 3.77767 5.52076V5.52073L4.06836 4.82321C4.51561 3.7545 4.61989 2.57326 4.36684 1.44272C4.3409 1.33539 4.4069 1.22738 4.51421 1.20144C4.62154 1.1755 4.72955 1.2415 4.75549 1.34881C4.75606 1.35118 4.75659 1.35356 4.75709 1.35596C5.02818 2.56701 4.9164 3.83237 4.43721 4.97715L4.14633 5.67467C4.11529 5.74907 4.04262 5.79755 3.962 5.79763Z" fill="#FFBF41"/>
        <path d="M10.8981 8.19678C11.119 8.19678 11.298 8.01777 11.298 7.79694C11.298 7.57611 11.119 7.39709 10.8981 7.39709C10.6773 7.39709 10.4983 7.57611 10.4983 7.79694C10.4983 8.01777 10.6773 8.19678 10.8981 8.19678Z" fill="#D5557E"/>
        <path d="M6.09992 2.59888C6.32074 2.59888 6.49976 2.41987 6.49976 2.19904C6.49976 1.97821 6.32074 1.79919 6.09992 1.79919C5.87909 1.79919 5.70007 1.97821 5.70007 2.19904C5.70007 2.41987 5.87909 2.59888 6.09992 2.59888Z" fill="#DD95C1"/>
        <path d="M4.30072 0.799688C4.07988 0.799688 3.90088 0.620683 3.90088 0.399844C3.90088 0.179005 4.07988 0 4.30072 0C4.52156 0 4.70057 0.179005 4.70057 0.399844C4.70057 0.620683 4.52156 0.799688 4.30072 0.799688Z" fill="#7FCCCB"/>
        <path d="M9.89841 1.59952C9.788 1.59952 9.69849 1.51001 9.69849 1.3996V1.19968C9.69849 1.08927 9.788 0.999756 9.89841 0.999756C10.0088 0.999756 10.0983 1.08927 10.0983 1.19968V1.3996C10.0983 1.51001 10.0088 1.59952 9.89841 1.59952Z" fill="#2276BB"/>
        <path d="M9.89841 0.599766C9.788 0.599766 9.69849 0.510251 9.69849 0.399844V0.199922C9.69849 0.0895151 9.788 0 9.89841 0C10.0088 0 10.0983 0.0895151 10.0983 0.199922V0.399844C10.0983 0.510251 10.0088 0.599766 9.89841 0.599766Z" fill="#2276BB"/>
        <path d="M10.4982 0.999576H10.2983C10.1879 0.999576 10.0984 0.910061 10.0984 0.799654C10.0984 0.689247 10.1879 0.599731 10.2983 0.599731H10.4982C10.6086 0.599731 10.6982 0.689247 10.6982 0.799654C10.6982 0.910061 10.6087 0.999576 10.4982 0.999576Z" fill="#2276BB"/>
        <path d="M9.4986 0.999576H9.29868C9.18827 0.999576 9.09875 0.910061 9.09875 0.799654C9.09875 0.689247 9.18827 0.599731 9.29868 0.599731H9.4986C9.609 0.599731 9.69852 0.689247 9.69852 0.799654C9.69852 0.910061 9.60903 0.999576 9.4986 0.999576Z" fill="#2276BB"/>
        <path d="M1.68929 5.79774C1.6669 5.71217 1.64691 5.62581 1.62832 5.53784L1.10852 7.67061L1.1485 8.15822C1.23565 9.19779 1.68222 10.1745 2.41141 10.9205L5.34887 9.81018C5.33287 9.80518 5.31628 9.80158 5.30029 9.79618C3.51911 9.12832 2.17281 7.63755 1.68929 5.79774Z" fill="white"/>
        <path d="M5.3489 9.80998C5.3329 9.80498 5.31631 9.80139 5.30031 9.79599C5.10789 9.72314 4.91941 9.6402 4.73573 9.54749L2.08997 10.5485C2.19028 10.6786 2.29766 10.8031 2.41164 10.9213L5.3489 9.80998Z" fill="#F6F6E7"/>
        <path d="M8.49905 2.3949V3.39871H7.49524V2.3949H8.49905Z" fill="#C9DA53"/>
        <path d="M4.90043 5.99765C4.79003 5.99763 4.70054 5.90809 4.70056 5.79768C4.70059 5.74105 4.7246 5.6871 4.76669 5.64919L6.7659 3.84989C6.8494 3.77764 6.97565 3.78676 7.04789 3.87026C7.11814 3.95142 7.11175 4.07358 7.0334 4.14697L5.03418 5.94627C4.9975 5.97934 4.94984 5.99763 4.90043 5.99765Z" fill="#FFBF41"/>
        <path d="M10.6982 5.19803C10.5878 5.19803 10.4983 5.10852 10.4983 4.99811V4.79819C10.4983 4.68778 10.5878 4.59827 10.6982 4.59827C10.8086 4.59827 10.8981 4.68778 10.8981 4.79819V4.99811C10.8981 5.10852 10.8086 5.19803 10.6982 5.19803Z" fill="#FFDB43"/>
        <path d="M11.4051 4.90506C11.352 4.90521 11.3011 4.88412 11.2638 4.84648L11.1224 4.70514C11.0457 4.62572 11.0479 4.49914 11.1273 4.42245C11.2048 4.34763 11.3276 4.34763 11.4051 4.42245L11.5464 4.56379C11.6245 4.64189 11.6245 4.76846 11.5464 4.84653C11.5089 4.88399 11.4581 4.90506 11.4051 4.90506Z" fill="#FFDB43"/>
        <path d="M11.6978 4.19867H11.4979C11.3875 4.19867 11.298 4.10916 11.298 3.99875C11.298 3.88834 11.3875 3.79883 11.4979 3.79883H11.6978C11.8082 3.79883 11.8977 3.88834 11.8977 3.99875C11.8977 4.10916 11.8083 4.19867 11.6978 4.19867Z" fill="#FFDB43"/>
        <path d="M11.2637 3.63286C11.1533 3.63284 11.0638 3.54332 11.0638 3.43289C11.0638 3.37989 11.0849 3.32906 11.1224 3.2916L11.2637 3.15025C11.3431 3.07353 11.4697 3.07573 11.5464 3.15515C11.6212 3.23262 11.6212 3.35545 11.5464 3.43294L11.4051 3.57429C11.3676 3.61177 11.3167 3.63286 11.2637 3.63286Z" fill="#FFDB43"/>
        <path d="M10.6982 3.39884C10.5878 3.39884 10.4983 3.30932 10.4983 3.19892V2.99899C10.4983 2.88859 10.5878 2.79907 10.6982 2.79907C10.8086 2.79907 10.8981 2.88859 10.8981 2.99899V3.19892C10.8981 3.30932 10.8086 3.39884 10.6982 3.39884Z" fill="#FFDB43"/>
        <path d="M10.1325 3.63309C10.0795 3.63309 10.0287 3.612 9.99117 3.57451L9.84983 3.43317C9.77313 3.35375 9.7753 3.22717 9.85472 3.15048C9.93219 3.07566 10.055 3.07566 10.1325 3.15048L10.2739 3.29182C10.3519 3.36992 10.3519 3.49649 10.2738 3.57456C10.2364 3.61202 10.1855 3.63309 10.1325 3.63309Z" fill="#FFDB43"/>
        <path d="M1.10191 0.199951L1.41079 0.825907L2.10152 0.926268L1.60171 1.41348L1.71966 2.10141L1.10191 1.77654L0.484146 2.10141L0.6021 1.41348L0.102295 0.926268L0.793026 0.825907L1.10191 0.199951Z" fill="#FFDB43"/>
        <path d="M11.8345 10.829C11.7394 10.492 11.5205 10.2034 11.2215 10.0211L11.1392 9.89753C10.6773 9.20688 9.95108 8.73726 9.13175 8.59944C9.02245 8.58385 8.92119 8.65982 8.90559 8.76913C8.89052 8.87473 8.96102 8.97357 9.06578 8.99369C9.65675 9.094 10.1953 9.39423 10.5914 9.84416C10.2584 9.90406 9.96715 10.1041 9.7917 10.3933C9.57638 10.779 9.71445 11.2661 10.1001 11.4814C10.4857 11.6967 10.9728 11.5587 11.1881 11.173C11.2704 11.0143 11.3148 10.8386 11.3179 10.6598C11.5306 10.9688 11.5476 11.3723 11.3617 11.698C11.3054 11.793 11.3367 11.9156 11.4316 11.972C11.5266 12.0283 11.6492 11.997 11.7056 11.902C11.7074 11.899 11.7091 11.8959 11.7107 11.8928C11.8924 11.5689 11.9369 11.1859 11.8345 10.829ZM10.8395 10.9779C10.7328 11.1713 10.4895 11.2415 10.2962 11.1348C10.1029 11.0281 10.0327 10.7848 10.1394 10.5915C10.14 10.5904 10.1406 10.5893 10.1412 10.5883C10.2591 10.3951 10.4581 10.2656 10.6825 10.236C10.7173 10.2351 10.7517 10.2431 10.7825 10.2592C10.9512 10.3534 10.9602 10.7616 10.8395 10.9779Z" fill="#2BB3CE"/>
    </g>
    <defs>
        <clipPath id="clip0">
            <rect width="12" height="12" fill="white"/>
        </clipPath>
    </defs>
</svg>
