<svg width="200" height="180" viewBox="0 0 200 180" fill="none" xmlns="http://www.w3.org/2000/svg">
<path d="M154.127 112.938L154.129 112.934C156.062 109.558 157.874 109.045 158.626 109.045C159.376 109.045 161.183 109.556 163.114 112.919C163.116 112.924 163.119 112.929 163.122 112.934L193.557 166.949L193.565 166.964L193.574 166.979C195.491 170.327 195.055 172.224 194.632 172.961C194.216 173.687 192.829 175 189.022 175H127.673C123.95 175 122.574 173.705 122.147 172.961C121.707 172.194 121.28 170.282 123.134 166.958L154.127 112.938ZM110.842 21.1686L110.855 21.1929L110.869 21.217L126.79 49.4967C129.931 56.137 129.933 63.9611 126.796 70.603L73.2734 164.373C69.2497 170.591 62.6676 174.498 55.3813 175H10.9781C7.13863 175 5.76617 173.694 5.36282 172.994C4.95237 172.282 4.49897 170.389 6.43989 166.955L6.44642 166.943L95.2256 8.8892C95.2288 8.88361 95.232 8.87802 95.2352 8.87245C97.1795 5.48575 98.9652 5 99.6666 5C100.367 5 102.146 5.48379 104.086 8.8519L110.842 21.1686Z" fill="#A51A1A" stroke="#E84142" stroke-width="10"/>
</svg>
