<svg width="51" height="15" viewBox="0 0 51 15" fill="none" xmlns="http://www.w3.org/2000/svg">
<path d="M0 14.3321V12.0909L3.61721 2.22202H0.521212V0.159729H6.10861V2.22202L2.43927 12.2698H6.10861V14.3321H0Z" fill="white"/>
<path d="M9.34839 11.5922V11.4227V3.06989C9.34839 3.02595 9.34839 2.96945 9.34839 2.90039C9.35533 2.82506 9.37614 2.68067 9.41089 2.46722C9.45258 2.25377 9.50821 2.04973 9.57771 1.85512C9.64721 1.66051 9.75841 1.44706 9.91129 1.21477C10.0642 0.976216 10.2414 0.772184 10.4429 0.602679C10.6514 0.433175 10.9259 0.291922 11.2664 0.17892C11.607 0.05964 11.9892 0 12.4131 0C12.837 0 13.2192 0.0565013 13.5597 0.169503C13.9003 0.282506 14.1713 0.430036 14.3728 0.612096C14.5813 0.787875 14.762 0.985629 14.9149 1.20536C15.0747 1.42509 15.1894 1.64481 15.2589 1.86454C15.3284 2.08426 15.3805 2.28515 15.4153 2.46722C15.4569 2.64299 15.4778 2.78739 15.4778 2.90039L15.4883 3.06989V11.4227C15.4883 11.4666 15.4848 11.5262 15.4778 11.6015C15.4778 11.6706 15.4569 11.8119 15.4153 12.0253C15.3805 12.2388 15.3284 12.4428 15.2589 12.6374C15.1894 12.8257 15.0782 13.0392 14.9254 13.2778C14.7724 13.5101 14.5918 13.711 14.3833 13.8805C14.1748 14.05 13.9003 14.1943 13.5597 14.3136C13.2192 14.4266 12.837 14.4831 12.4131 14.4831C11.9892 14.4831 11.607 14.4266 11.2664 14.3136C10.9259 14.2006 10.6514 14.0562 10.4429 13.8805C10.2414 13.6984 10.0642 13.4975 9.91129 13.2778C9.75841 13.058 9.64721 12.8414 9.57771 12.628C9.50821 12.4083 9.45258 12.2105 9.41089 12.0347C9.37614 11.8527 9.35533 11.7051 9.34839 11.5922ZM11.6521 11.4227C11.6521 11.4477 11.6521 11.4854 11.6521 11.5356C11.6521 11.5796 11.6625 11.6612 11.6834 11.7805C11.7112 11.8998 11.7459 12.0065 11.7876 12.1007C11.8363 12.1886 11.9127 12.2702 12.017 12.3455C12.1282 12.4208 12.2602 12.4585 12.4131 12.4585C12.566 12.4585 12.6945 12.424 12.7988 12.3549C12.91 12.2796 12.9899 12.1917 13.0385 12.0912C13.0872 11.9908 13.1219 11.8903 13.1428 11.7899C13.1706 11.6894 13.1845 11.6015 13.1845 11.5262V11.4227V3.06989C13.1845 3.03851 13.1845 3.00084 13.1845 2.95689C13.1845 2.91295 13.1706 2.83134 13.1428 2.71205C13.1219 2.58649 13.0872 2.47977 13.0385 2.39188C12.9899 2.29771 12.91 2.21296 12.7988 2.13762C12.6945 2.06229 12.566 2.02462 12.4131 2.02462C12.1699 2.02462 11.9857 2.11251 11.8606 2.28829C11.7355 2.4578 11.6695 2.63044 11.6625 2.80622L11.6521 3.06989V11.4227Z" fill="white"/>
<path d="M19.1765 14.3321V0.159729H21.4803V4.87757V5.49907H21.5637L21.6784 4.87757L23.5964 0.159729H25.8376L23.7215 4.82107L26.1191 14.3321H23.8674L22.2725 8.16403L22.21 7.87212H22.1474L22.0119 8.16403L21.4803 9.3223V14.3321H19.1765Z" fill="white"/>
<path d="M28.9209 0.159729H31.183L32.3401 4.68924L32.4026 5.20716H32.4443L32.5069 4.68924L33.664 0.159729H35.926L33.5806 8.29587V14.3321H31.2768V8.29587L28.9209 0.159729Z" fill="white"/>
<path d="M38.8533 11.5922V11.4227V3.06989C38.8533 3.02595 38.8533 2.96945 38.8533 2.90039C38.8602 2.82506 38.8811 2.68067 38.9158 2.46722C38.9575 2.25377 39.0131 2.04973 39.0826 1.85512C39.1521 1.66051 39.2633 1.44706 39.4162 1.21477C39.5691 0.976216 39.7462 0.772184 39.9478 0.602679C40.1563 0.433175 40.4308 0.291922 40.7714 0.17892C41.1119 0.05964 41.4941 0 41.918 0C42.3419 0 42.7241 0.0565013 43.0647 0.169503C43.4052 0.282506 43.6762 0.430036 43.8777 0.612096C44.0862 0.787875 44.2669 0.985629 44.4198 1.20536C44.5796 1.42509 44.6943 1.64481 44.7638 1.86454C44.8333 2.08426 44.8855 2.28515 44.9202 2.46722C44.9619 2.64299 44.9827 2.78739 44.9827 2.90039L44.9931 3.06989V11.4227C44.9931 11.4666 44.9896 11.5262 44.9827 11.6015C44.9827 11.6706 44.9619 11.8119 44.9202 12.0253C44.8855 12.2388 44.8333 12.4428 44.7638 12.6374C44.6943 12.8257 44.5831 13.0392 44.4302 13.2778C44.2774 13.5101 44.0967 13.711 43.8882 13.8805C43.6797 14.05 43.4052 14.1943 43.0647 14.3136C42.7241 14.4266 42.3419 14.4831 41.918 14.4831C41.4941 14.4831 41.1119 14.4266 40.7714 14.3136C40.4308 14.2006 40.1563 14.0562 39.9478 13.8805C39.7462 13.6984 39.5691 13.4975 39.4162 13.2778C39.2633 13.058 39.1521 12.8414 39.0826 12.628C39.0131 12.4083 38.9575 12.2105 38.9158 12.0347C38.8811 11.8527 38.8602 11.7051 38.8533 11.5922ZM41.1571 11.4227C41.1571 11.4477 41.1571 11.4854 41.1571 11.5356C41.1571 11.5796 41.1674 11.6612 41.1883 11.7805C41.2161 11.8998 41.2509 12.0065 41.2926 12.1007C41.3412 12.1886 41.4176 12.2702 41.5219 12.3455C41.6331 12.4208 41.7651 12.4585 41.918 12.4585C42.0709 12.4585 42.1995 12.424 42.3037 12.3549C42.4149 12.2796 42.4948 12.1917 42.5434 12.0912C42.5921 11.9908 42.6269 11.8903 42.6477 11.7899C42.6755 11.6894 42.6894 11.6015 42.6894 11.5262V11.4227V3.06989C42.6894 3.03851 42.6894 3.00084 42.6894 2.95689C42.6894 2.91295 42.6755 2.83134 42.6477 2.71205C42.6269 2.58649 42.5921 2.47977 42.5434 2.39188C42.4948 2.29771 42.4149 2.21296 42.3037 2.13762C42.1995 2.06229 42.0709 2.02462 41.918 2.02462C41.6748 2.02462 41.4906 2.11251 41.3655 2.28829C41.2404 2.4578 41.1744 2.63044 41.1674 2.80622L41.1571 3.06989V11.4227Z" fill="white"/>
<path d="M48.3789 14.3323V12.1947H50.6201V14.3323H48.3789Z" fill="white"/>
</svg>
