<svg width="84" height="11" viewBox="0 0 84 11" fill="none" xmlns="http://www.w3.org/2000/svg">
    <path d="M6.71029 0.430328V3.66398H2.74766V0.430328H0V10.0191H2.87851V6.67333H6.84112V10.0191H9.71964V0.430328H6.71029Z" fill="white"/>
    <path d="M30.1871 0.429396H28.7478V10.0182H39.5329V7.27054H31.7385V3.08362H39.5329V0.335938H30.1871V0.429396Z" fill="white"/>
    <path d="M80.9906 0.430328V4.50511L77.0279 0.430328H74.2803V10.0191H77.1588V5.70137L81.1214 10.0191H83.9999V0.430328H80.9906Z" fill="white"/>
    <path d="M51.9997 0.430328V3.66398H47.3268V0.430328H44.3362V10.0191H47.4577V6.67333H52.1306V10.0191H55.2521V6.54249H52.3736L55.2521 3.66398V0.430328H51.9997Z" fill="white"/>
    <path d="M23.4764 0.430328H14.7287H14.3735V10.0191H17.1212V7.98174H21.0838V10.0191H23.8315V0.430328H23.4764ZM21.196 5.10323H17.2333V3.17801H21.196V5.10323Z" fill="white"/>
    <path d="M60.7479 0.429576H59.9067V10.0184H60.617H69.3646V7.27073H62.5422V6.56044H69.3646V3.81278H62.5422V3.10249H69.3646V0.354828H60.7292V0.429576H60.7479Z" fill="white"/>
</svg>
