<svg width="74" height="18" viewBox="0 0 74 18" fill="none" xmlns="http://www.w3.org/2000/svg">
<path fill-rule="evenodd" clip-rule="evenodd" d="M15.257 2.76355L15.3498 3.33616C15.423 3.86884 15.4569 4.40638 15.4512 4.94424C15.4506 6.13285 15.3101 7.31708 15.0327 8.47149C14.6575 10.0398 14.004 11.5248 13.1046 12.853C12.0653 14.3782 10.5626 15.8785 8.37205 17.0839L8.10408 17.2313L7.83611 17.0839C5.64561 15.8785 4.14348 14.3782 3.10355 12.853C2.20415 11.5248 1.55069 10.0398 1.17549 8.47149C0.898127 7.31729 0.757603 6.13327 0.756936 4.94487C0.751272 4.40701 0.785172 3.86947 0.858347 3.33679L0.951155 2.76417C0.959077 2.71747 0.957865 2.66964 0.947587 2.62342C0.93731 2.5772 0.91817 2.53352 0.891272 2.49488C0.864374 2.45625 0.830249 2.42342 0.790863 2.39831C0.751478 2.37319 0.707611 2.35628 0.66179 2.34854C0.615969 2.3408 0.569101 2.34239 0.523886 2.35322C0.478671 2.36405 0.436004 2.38391 0.398342 2.41164C0.360681 2.43937 0.32877 2.47444 0.30445 2.51481C0.280129 2.55519 0.263879 2.60008 0.256636 2.64689L0.163829 3.2195C0.0840021 3.79092 0.0468133 4.3677 0.0525833 4.94487C0.0530259 6.19181 0.200362 7.43417 0.491421 8.64522C0.88762 10.299 1.57733 11.8648 2.52642 13.265C3.62351 14.8762 5.21476 16.4605 7.50483 17.718L7.93998 17.9569C7.99123 17.9852 8.04858 18 8.10684 18C8.16511 18 8.22246 17.9852 8.27371 17.9569L8.70825 17.718C10.9959 16.4599 12.5877 14.8762 13.6867 13.265C14.6353 11.8649 15.3245 10.2994 15.7204 8.64585C16.0115 7.4348 16.1588 6.19243 16.1593 4.9455C16.165 4.36833 16.1278 3.79155 16.048 3.22013L15.9552 2.64752C15.948 2.60071 15.9317 2.55582 15.9074 2.51544C15.8831 2.47507 15.8512 2.44 15.8135 2.41227C15.7758 2.38453 15.7332 2.36468 15.688 2.35385C15.6427 2.34302 15.5959 2.34143 15.5501 2.34917C15.5042 2.3569 15.4604 2.37382 15.421 2.39893C15.3816 2.42405 15.3475 2.45687 15.3206 2.49551C15.2937 2.53414 15.2745 2.57783 15.2643 2.62405C15.254 2.67027 15.2528 2.7181 15.2607 2.7648L15.257 2.76355Z" fill="white"/>
<path fill-rule="evenodd" clip-rule="evenodd" d="M2.87327 2.37317L8.10367 0.742513L13.4508 2.4083C13.5404 2.43561 13.6368 2.42562 13.7192 2.38052C13.8015 2.33541 13.8629 2.25887 13.8901 2.16764C13.9172 2.07641 13.9079 1.97792 13.864 1.89373C13.8202 1.80953 13.7454 1.74649 13.6561 1.7184L8.20631 0.0206313C8.13942 -0.000285318 8.06792 -0.000285318 8.00102 0.0206313L2.66737 1.68203C2.6228 1.69562 2.5813 1.71807 2.54525 1.74808C2.5092 1.77808 2.47932 1.81506 2.45731 1.85689C2.4353 1.89871 2.42161 1.94456 2.41701 1.9918C2.41242 2.03904 2.41701 2.08674 2.43052 2.13216C2.44404 2.17758 2.46621 2.21984 2.49577 2.25649C2.52533 2.29315 2.5617 2.32349 2.60278 2.34576C2.64386 2.36804 2.68885 2.38182 2.73516 2.38631C2.78147 2.3908 2.8282 2.38591 2.87265 2.37192L2.87327 2.37317Z" fill="white"/>
<path fill-rule="evenodd" clip-rule="evenodd" d="M0.290601 2.86888L7.78894 17.8032C7.81817 17.8616 7.86251 17.9107 7.91715 17.9451C7.97179 17.9796 8.03464 17.9981 8.09888 17.9987C8.16311 17.9993 8.22627 17.9819 8.2815 17.9484C8.33673 17.915 8.38192 17.8667 8.41216 17.8089L12.9849 9.0817L12.9917 9.0679L15.9185 2.85884C15.9582 2.77316 15.9631 2.67495 15.9322 2.58558C15.9013 2.49621 15.8371 2.4229 15.7535 2.38158C15.6699 2.34026 15.5737 2.33427 15.4859 2.36492C15.398 2.39557 15.3255 2.46038 15.2842 2.54525L12.3623 8.7493L8.11284 16.865L0.916897 2.54024C0.896158 2.4977 0.867354 2.45979 0.832154 2.4287C0.796954 2.39761 0.756058 2.37396 0.711835 2.35911C0.667612 2.34426 0.620941 2.33852 0.574527 2.34221C0.528112 2.3459 0.482877 2.35896 0.441443 2.38062C0.400008 2.40228 0.363197 2.43211 0.333143 2.46839C0.303089 2.50467 0.280389 2.54668 0.266359 2.59198C0.252329 2.63727 0.247247 2.68496 0.251408 2.73228C0.25557 2.77959 0.268891 2.8256 0.290601 2.86762V2.86888Z" fill="white"/>
<path fill-rule="evenodd" clip-rule="evenodd" d="M3.87995 9.51996H12.2185C12.3118 9.51996 12.4013 9.48213 12.4673 9.4148C12.5333 9.34746 12.5703 9.25613 12.5703 9.1609C12.5703 9.06568 12.5333 8.97435 12.4673 8.90701C12.4013 8.83967 12.3118 8.80184 12.2185 8.80184H3.87995C3.78662 8.80184 3.69712 8.83967 3.63114 8.90701C3.56515 8.97435 3.52808 9.06568 3.52808 9.1609C3.52808 9.25613 3.56515 9.34746 3.63114 9.4148C3.69712 9.48213 3.78662 9.51996 3.87995 9.51996ZM27.1383 6.4217H21.7137C21.62 6.4222 21.5302 6.46042 21.4639 6.52806C21.3976 6.5957 21.3602 6.6873 21.3597 6.78296V11.2259C21.3603 11.3215 21.3978 11.413 21.4641 11.4806C21.5303 11.5482 21.62 11.5865 21.7137 11.5871H27.1383V12.3398H21.7137C21.5706 12.3404 21.4287 12.3121 21.2964 12.2566C21.164 12.201 21.0438 12.1192 20.9426 12.0159C20.8414 11.9126 20.7612 11.7899 20.7067 11.6549C20.6523 11.5198 20.6246 11.3751 20.6252 11.229V6.78609C20.6246 6.64005 20.6523 6.49531 20.7067 6.36025C20.7612 6.22519 20.8414 6.10248 20.9426 5.99921C21.0438 5.89593 21.164 5.81414 21.2964 5.75856C21.4287 5.70298 21.5706 5.6747 21.7137 5.67536H27.1383V6.4217ZM37.3244 5.6716V6.42421H32.1001V8.62373H36.2992V9.38261H32.0995V11.5859H37.3238V12.3385H31.362V5.6716H37.3244Z" fill="white"/>
<path d="M48.0821 6.79165V8.74468C48.0827 8.89071 48.0549 9.0354 48.0004 9.17042C47.9459 9.30545 47.8658 9.42812 47.7646 9.53138C47.6634 9.63464 47.5432 9.71643 47.4108 9.77204C47.2785 9.82766 47.1367 9.85599 46.9936 9.85541H45.9961L48.0459 12.3359H47.0754L45.0342 9.85541H42.6372C42.5187 9.84925 42.4005 9.8369 42.2832 9.81841V12.3359H41.5457V5.68092H46.9881C47.1312 5.68034 47.273 5.70867 47.4053 5.76428C47.5376 5.8199 47.6579 5.90169 47.759 6.00495C47.8602 6.1082 47.9404 6.23088 47.9949 6.3659C48.0494 6.50093 48.0772 6.64562 48.0766 6.79165H48.0821ZM42.6397 9.09653H46.9936C47.0391 9.09712 47.0842 9.08842 47.1263 9.07094C47.1684 9.05347 47.2066 9.02758 47.2387 8.99479C47.2709 8.962 47.2962 8.92297 47.3134 8.88002C47.3305 8.83707 47.339 8.79105 47.3384 8.74468V6.79165C47.3391 6.7446 47.3307 6.69787 47.3136 6.65417C47.2965 6.61046 47.2711 6.57064 47.2389 6.53701C47.2075 6.50258 47.1695 6.47529 47.1271 6.45692C47.0847 6.43854 47.039 6.42951 46.993 6.43039H42.6391C42.5453 6.43089 42.4556 6.46911 42.3893 6.53675C42.323 6.60439 42.2855 6.69599 42.285 6.79165V8.74468C42.2841 8.79166 42.2929 8.8383 42.3109 8.88155C42.3289 8.92479 42.3557 8.96365 42.3895 8.99555C42.4225 9.02851 42.4617 9.05442 42.5046 9.07176C42.5476 9.0891 42.5935 9.09752 42.6397 9.09653Z" fill="white"/>
<path fill-rule="evenodd" clip-rule="evenodd" d="M51.9832 5.6716H58.5116V6.42421H55.6229V12.3391H54.8854V6.42421H51.9832V5.6716ZM62.4685 12.336V5.6716H63.2061V12.336H62.4685ZM73.0086 5.6716H73.952L71.2219 9.0038L73.9613 12.336H73.0086L70.5778 9.38324H68.4733V12.336H67.7309V5.6716H68.4746V8.62373H70.579L73.0086 5.6716Z" fill="white"/>
</svg>
