<svg width="84" height="18" viewBox="0 0 84 18" fill="none" xmlns="http://www.w3.org/2000/svg">
<path fill-rule="evenodd" clip-rule="evenodd" d="M4.67822 7.65289L10.4745 13.2823L16.2089 7.71302L20.9106 12.2793L15.4478 17.5848L14.0425 16.2563L18.1374 12.2793L16.2089 10.4063L10.4745 15.9756L4.67822 10.3462L2.77319 12.1964L6.93036 16.2339L5.52504 17.5624L0 12.1964L4.67822 7.65289Z" fill="white"/>
<path fill-rule="evenodd" clip-rule="evenodd" d="M16.2326 10.3462L10.4363 4.71684L4.70197 10.2861L0.000244141 5.71974L5.463 0.414276L6.86832 1.74276L2.77343 5.71974L4.70197 7.59277L10.4363 2.02348L16.2326 7.65285L18.1376 5.80262L13.9804 1.76516L15.3857 0.436672L20.9108 5.80262L16.2326 10.3462Z" fill="white"/>
<path fill-rule="evenodd" clip-rule="evenodd" d="M9.5708 17.4527V13.9059H11.4636V17.4527H9.5708Z" fill="white"/>
<path fill-rule="evenodd" clip-rule="evenodd" d="M9.5708 4.09334V0.546631H11.4636V4.09334H9.5708Z" fill="white"/>
<path d="M27.2887 4.60135H25.4026V13.6616H27.2887V4.60135Z" fill="white"/>
<path d="M36.8558 6.9921C35.9984 6.9921 35.1807 7.34447 34.7719 8.11208C34.3498 7.34447 33.5584 6.9921 32.6352 6.9921C31.8042 6.9921 31.1712 7.29411 30.8414 7.83522L30.6436 7.11797H28.929V13.6615H30.7755V9.9996C30.7755 9.03068 31.3031 8.56508 32.0812 8.56508C32.8198 8.56508 33.321 9.00552 33.321 10.0751V13.6615H35.1016V10.0374C35.1279 9.01808 35.6819 8.56508 36.4073 8.56508C37.1591 8.56508 37.6471 9.00552 37.6471 9.98704V13.674H39.5068V9.63471C39.5068 7.82262 38.2274 6.9921 36.8558 6.9921Z" fill="white"/>
<path d="M48.8987 6.9921C48.0412 6.9921 47.2237 7.34447 46.8149 8.11208C46.3927 7.34447 45.6012 6.9921 44.6781 6.9921C43.8472 6.9921 43.2141 7.29411 42.8844 7.83522L42.6865 7.11797H40.9719V13.6615H42.8184V9.9996C42.8184 9.03068 43.346 8.56508 44.1242 8.56508C44.8628 8.56508 45.364 9.00552 45.364 10.0751V13.6615H47.1446V10.0374C47.1707 9.01808 47.725 8.56508 48.4504 8.56508C49.2019 8.56508 49.6902 9.00552 49.6902 9.98704V13.674H51.5499V9.63471C51.5499 7.82262 50.2706 6.9921 48.8987 6.9921Z" fill="white"/>
<path d="M57.5126 7.11826V10.7046C57.5126 11.6735 57.0378 12.2524 56.1277 12.265C55.2572 12.2901 54.7033 11.7994 54.7033 10.7801V7.11826H52.9492V11.0066C52.9492 12.6802 53.9644 13.7876 55.719 13.7876C56.5365 13.7876 57.1299 13.4352 57.4861 12.9445L57.5787 13.6618H59.2668V7.11826H57.5126Z" fill="white"/>
<path d="M64.6854 6.9921C63.6567 6.9921 62.9708 7.35702 62.6146 7.89814L62.509 7.11797H60.7944V13.6615H62.6411V10.2009C62.6411 9.14391 63.1684 8.50217 64.1446 8.50217C65.0416 8.50217 65.5824 9.05584 65.5824 10.138V13.6615H67.4421V9.7731C67.4421 8.09948 66.4395 6.9921 64.6854 6.9921Z" fill="white"/>
<path d="M75.5173 10.2891C75.5173 8.28822 74.1585 6.9921 72.1142 6.9921C70.0699 6.9921 68.6985 8.35114 68.6985 10.3897C68.6985 12.4409 70.0699 13.7999 72.1277 13.7999C73.8553 13.7999 75.1611 12.8813 75.4643 11.5222H73.6046C73.3939 12.0885 72.8531 12.3779 72.1802 12.3779C71.2966 12.3779 70.5842 11.8368 70.5582 10.8679H75.5173V10.2891ZM72.1142 8.36374C72.9187 8.36374 73.5916 8.80418 73.6707 9.71018H70.5712C70.6502 8.80418 71.3231 8.36374 72.1142 8.36374Z" fill="white"/>
<path d="M76.2383 7.11804V8.65322H77.2935V13.6616H79.1531V8.65322H80.7226V7.11804H79.1531V6.45109C79.1531 5.98549 79.2847 5.63317 80.0367 5.63317H80.7226V4.19861H79.6279C77.8999 4.19861 77.2935 5.00398 77.2935 6.27491V7.11804H76.2383Z" fill="white"/>
<path d="M81.9424 6.11132H83.8151L83.8416 4.19861H81.9689L81.9424 6.11132ZM81.9689 13.6616H83.8151V7.11804H81.9689V13.6616Z" fill="white"/>
</svg>
