<svg width="45" height="53" viewBox="0 0 45 53" fill="none" xmlns="http://www.w3.org/2000/svg">
<path d="M22.7839 53L0 39.1419V17.7834L22.5275 30.1672L38.5714 21.856V35.2351L22.7473 43.5831L7.58242 35.1429L9.24908 32.1207L22.7839 39.6394L35.1282 33.1342V27.532L22.4725 34.0741L3.44322 23.6252V37.1885L22.7473 48.9273L41.5385 37.0779V14.9638L22.8938 3.99896L7.63736 12.863L22.8938 21.5981L30.7509 16.9725L22.967 12.2364L17.1245 15.2403L15.5678 12.1443L23.1136 8.27434L37.4725 17.0094L22.9121 25.597L0.714286 12.8814L22.9121 0L45 12.9736V38.9944L22.7839 53Z" fill="#F2F2F2"/>
</svg>
